<svg width="504" height="333" viewBox="0 0 504 333" fill="none" xmlns="http://www.w3.org/2000/svg">
<path d="M479.89 331.854C489.72 317.728 491.887 297.408 492.388 280.679C492.96 261.657 489.581 242.387 481.183 225.247C473.221 208.999 460.441 195.045 444.907 185.871C428.828 176.375 410.566 174.916 392.821 170.775C381.229 168.07 370.217 163.254 363.028 153.285C352.792 139.092 353.821 120.022 351.442 102.648C346.289 65.026 322.097 30.5554 288.589 13.0919C255.081 -4.37164 213.149 -4.36343 179.647 13.1135C146.145 30.5905 121.967 65.0701 116.829 102.695C113.023 130.572 118.104 162.277 100.332 184C83.8593 204.133 54.4314 206.93 32.743 221.203C11.8428 234.958 -1.03257 260.228 0.0650283 285.338C0.81728 302.537 8.10934 319.232 19.7069 331.854L479.89 331.854Z" fill="#FFE4AF"/>
<path d="M387.387 135.756C387.387 139.469 384.362 142.478 380.63 142.478C376.898 142.478 373.874 139.469 373.874 135.756C373.874 132.043 376.898 129.034 380.63 129.034C384.362 129.034 387.387 132.043 387.387 135.756Z" fill="#FFE4AF"/>
<path d="M100.851 244.058C100.851 246.671 98.7225 248.788 96.0963 248.788C93.4694 248.788 91.3411 246.671 91.3411 244.058C91.3411 241.445 93.4694 239.328 96.0963 239.328C98.7225 239.328 100.851 241.445 100.851 244.058Z" fill="#FFC672"/>
<path d="M313.313 280.905C313.313 283.518 311.184 285.636 308.558 285.636C305.932 285.636 303.804 283.518 303.804 280.905C303.804 278.293 305.932 276.175 308.558 276.175C311.184 276.175 313.313 278.293 313.313 280.905Z" fill="#FFC672"/>
<path d="M182.683 99.4065C182.683 102.019 180.554 104.137 177.928 104.137C175.301 104.137 173.173 102.019 173.173 99.4065C173.173 96.7938 175.301 94.6764 177.928 94.6764C180.554 94.6764 182.683 96.7938 182.683 99.4065Z" fill="#FFC672"/>
<path d="M385.385 202.231C385.385 204.844 383.256 206.961 380.63 206.961C378.004 206.961 375.876 204.844 375.876 202.231C375.876 199.618 378.004 197.501 380.63 197.501C383.256 197.501 385.385 199.618 385.385 202.231Z" fill="#FFC672"/>
<path d="M503.003 247.046C503.003 250.759 499.978 253.768 496.246 253.768C492.514 253.768 489.489 250.759 489.489 247.046C489.489 243.333 492.514 240.323 496.246 240.323C499.978 240.323 503.003 243.333 503.003 247.046Z" fill="#FFE4AF"/>
<path d="M213.965 86.9432C214.397 91.1707 212.571 94.7932 209.885 95.0352C207.2 95.2779 204.672 92.0475 204.239 87.82C203.806 83.5933 205.632 79.9708 208.318 79.728C211.004 79.486 213.532 82.7164 213.965 86.9432Z" fill="#FF966D"/>
<path d="M209.987 83.4839C209.895 83.478 209.804 83.4578 209.711 83.4668C208.258 83.5952 207.266 85.4916 207.498 87.7025C207.718 89.82 208.981 91.4385 210.363 91.4609C210.133 88.8102 210.088 86.1474 209.987 83.4839Z" fill="#BC6649"/>
<path d="M266.119 86.7842C265.686 91.0117 267.512 94.6342 270.199 94.8762C272.883 95.1189 275.412 91.8885 275.844 87.661C276.277 83.4343 274.451 79.8118 271.765 79.569C269.079 79.327 266.551 82.5574 266.119 86.7842Z" fill="#FF966D"/>
<path d="M270.096 83.3249C270.189 83.319 270.28 83.2988 270.372 83.3078C271.826 83.4362 272.816 85.3326 272.586 87.5435C272.365 89.6602 271.103 91.2795 269.72 91.3019C269.95 88.6512 269.995 85.9884 270.096 83.3249Z" fill="#BC6649"/>
<path d="M200.576 92.5402C200.505 93.3192 200.477 94.0676 200.494 94.7697C200.714 104.195 200.5 114.171 195.095 122.328C191.602 127.6 186.352 131.418 181.799 135.818C177.246 140.218 173.145 145.785 173.099 152.1C173.054 158.4 177.136 164.106 182.146 167.962C190.192 174.153 201.036 176.18 210.919 174.166C215.367 173.258 221.379 171.426 224.664 168.1C228.343 164.375 229.499 157.775 230.427 152.802C234.631 130.253 236.159 106.023 226.388 85.2519C223.918 80.0003 218.034 72.4961 211.169 74.881C204.883 77.065 201.175 85.9256 200.576 92.5402Z" fill="#002344"/>
<path d="M279.247 92.5402C279.318 93.3192 279.345 94.0676 279.329 94.7697C279.108 104.195 279.323 114.171 284.727 122.328C288.22 127.6 293.471 131.418 298.024 135.818C302.576 140.218 306.678 145.785 306.724 152.1C306.769 158.4 302.687 164.106 297.677 167.962C289.63 174.153 278.787 176.18 268.903 174.166C264.456 173.258 258.443 171.426 255.158 168.1C251.479 164.375 250.323 157.775 249.395 152.802C245.191 130.253 243.664 106.023 253.434 85.2519C255.904 80.0003 261.788 72.4961 268.654 74.881C274.939 77.065 278.647 85.9256 279.247 92.5402Z" fill="#002344"/>
<path d="M291.376 169.991C291.336 169.268 290.615 149.055 290.779 139.684C284.463 138.386 276.571 137.166 268.253 136.061C247.663 135.756 221.137 136.503 211.318 137.127C205.855 137.935 200.761 138.791 196.415 139.684C196.578 149.055 195.857 169.268 195.817 169.991C194.749 189.232 191.628 184.766 192.192 207.773C192.448 218.183 203.873 231.851 204.559 242.38C204.556 257.2 205.359 280.461 205.449 289.61H281.744C281.834 280.461 282.637 257.2 282.633 242.38C283.32 231.851 294.941 217.667 295.197 207.255C295.761 184.248 292.444 189.232 291.376 169.991Z" fill="white"/>
<path d="M262.317 171.994C258.56 194.054 226.66 194.369 221.217 172.954L211.252 137.747C211.181 137.308 211.098 136.929 211.009 136.582C209.323 136.681 207.654 136.905 206.025 137.345C206.053 137.473 206.084 137.606 206.121 137.747C207.748 143.972 210.719 159.844 210.156 166.755C208.705 184.545 204.336 203.963 192.358 206.712L195.612 295.595L287.703 295.096L294.711 209.7C280.877 209.891 271.937 164.512 273.439 136.752C273.455 136.459 273.455 136.198 273.447 135.951C271.826 135.668 270.192 135.473 268.538 135.415C268.538 135.415 262.326 171.944 262.317 171.994Z" fill="url(#paint0_linear)"/>
<path d="M271.622 225.701C259.714 228.934 247.085 228.704 234.895 227.578C223.918 226.563 212.974 223.941 203.708 217.76C199.2 214.753 195.537 211.095 192.42 206.695C192.399 206.7 192.379 206.707 192.358 206.712L195.611 295.595L287.703 295.096L294.446 212.911C287.817 218.744 280.259 223.356 271.622 225.701Z" fill="#EEB42D" style="mix-blend-mode:darken"/>
<path d="M290.456 139.74L294.21 140.487C304.482 144.38 312.875 152.294 319.299 161.169L359.15 220.531L337.288 228.948L292.333 180.198C290.097 175.756 289.089 169.523 287.828 160.778C286.584 152.144 289.587 144.598 290.456 139.74Z" fill="white"/>
<path d="M323.756 219.999C323.756 219.999 354.546 202.551 359.997 222.49C365.447 242.428 335.987 252.539 335.987 252.539L323.756 219.999Z" fill="white"/>
<path d="M181.266 219.926C180.182 219.53 179.005 219.387 177.856 219.512" stroke="#002344" stroke-width="1.67733" stroke-miterlimit="10"/>
<path d="M175.016 202.276L142.931 191.824C142.931 191.824 118.227 188.434 121.635 211.034C125.042 233.633 175.3 230.525 175.3 230.525C175.3 230.525 185.954 228.305 186.942 217.248C188.078 204.536 175.016 202.276 175.016 202.276Z" fill="white"/>
<path d="M195.495 200.78C198.148 201.885 200.899 202.884 203.77 203.061C206.64 203.235 209.679 202.49 211.746 200.499C212.629 199.648 213.33 198.301 212.722 197.237C212.198 196.318 210.982 196.099 209.923 196.033C207.146 195.857 204.359 196.057 201.577 195.974C198.797 195.891 195.962 195.507 193.482 194.253L195.495 200.78Z" fill="#CE704F"/>
<path d="M124.932 197.246C124.932 197.246 174.461 149.772 196.112 139.74C196.112 139.74 206.005 148.841 194.736 179.824L156.369 209.343L124.932 197.246Z" fill="white"/>
<path d="M202.637 192.82L215.093 238.554L207.975 238.85L193.665 192.967C193.665 192.967 191.441 187.877 196.557 186.77C201.673 185.664 202.637 192.82 202.637 192.82Z" fill="#693625"/>
<path d="M182.197 193.407C183.341 192.247 184.603 191.026 186.217 190.779C187.744 190.547 189.242 191.241 190.629 191.917C198.452 195.73 206.61 199.822 211.622 206.91C212.733 208.482 213.701 210.341 213.41 212.24C213.119 214.139 210.983 215.459 207.67 213.764C208.45 214.118 209.989 216.73 210.557 217.577C211.326 218.725 211.908 219.525 212.024 220.921C212.193 222.939 209.722 224.465 207.717 223.134C207.812 224.451 206.462 226.241 205.256 226.288C204.051 226.336 202.702 225.582 201.44 224.645C201.81 225.466 200.838 226.977 200.003 227.324C199.124 227.689 197.156 226.949 196.312 226.57C190.992 224.185 186.66 221.944 181.224 219.832C180.845 222.154 178.639 223.804 176.363 224.442C170.866 225.985 164.457 222.314 163.037 216.811C161.755 211.846 164.691 206.498 169.23 204.332C171.363 203.314 172.829 202.854 174.58 201.126C177.152 198.587 179.659 195.978 182.197 193.407Z" fill="#F4BBA6"/>
<path d="M304.766 234.024C305.956 234.846 307.865 235.677 310.701 235.648C316.326 235.591 320.978 231.492 322.738 229.307C323.371 227.499 323.734 225.884 324.052 223.985C324.253 222.779 324.186 221.379 324.145 220.157C317.045 222.075 308 228.458 304.681 231.162C303.758 231.914 303.786 233.347 304.766 234.024Z" fill="#F4BBA6"/>
<path d="M195.368 307.332L201.888 294.101L224.408 294.527V301.783H212.852L210.184 307.332C210.184 307.332 195.072 306.906 195.368 307.332Z" fill="#002344"/>
<path d="M286.631 307.332L280.112 294.101L257.591 294.527V301.783H269.148L271.816 307.332C271.816 307.332 286.928 306.906 286.631 307.332Z" fill="#002344"/>
<path d="M245.889 306.906H236.11V294.528H245.889V306.906Z" fill="#002344"/>
<path d="M333.75 314.407H148.251V305.858H333.75V314.407Z" fill="#002344"/>
<path d="M284.907 295.595H198.297C192.63 295.595 188.037 291.024 188.037 285.387V232.854H295.167V285.387C295.167 291.024 290.573 295.595 284.907 295.595Z" fill="#B6C2CB"/>
<path d="M188.037 241.632H169.42C167.023 241.632 165.08 239.7 165.08 237.316C165.08 234.931 167.023 232.998 169.42 232.998H188.037V241.632Z" fill="#002344"/>
<path d="M312.393 241.632H295.086V232.998H312.393C314.789 232.998 316.732 234.931 316.732 237.316C316.732 239.7 314.789 241.632 312.393 241.632Z" fill="#002344"/>
<g opacity="0.649994">
<g opacity="0.649994">
<path opacity="0.649994" d="M280.446 232.854V270.2C280.446 278.45 273.723 285.138 265.431 285.138H188.037V285.387C188.037 291.024 192.631 295.595 198.298 295.595H284.906C290.573 295.595 295.167 291.024 295.167 285.387V232.854H280.446Z" fill="#B6C2CB"/>
</g>
</g>
<path d="M214.817 305.989C212.735 306.149 210.409 304.782 208.762 303.641C206.655 302.182 204.785 300.209 203.678 297.888C202.93 296.294 202.445 294.624 202.391 292.984C202.351 292.577 202.327 292.176 202.364 291.773L202.425 290.584C202.507 289.802 202.68 289.039 202.806 288.294C202.84 288.09 203.034 287.953 203.239 287.986C203.395 288.013 203.512 288.131 203.544 288.276L203.556 288.331C203.713 289.057 203.822 289.771 204.017 290.456C204.27 291.129 204.415 291.81 204.765 292.41C205.306 293.663 206.163 294.691 207.061 295.525C209.147 297.462 212.197 297.617 214.657 298.859C216.328 299.703 217.934 300.702 219.349 301.929C220.595 303.009 221.837 304.425 222.746 305.793C222.015 306.32 220.307 305.873 219.417 305.907C217.885 305.965 216.35 305.954 214.817 305.989Z" fill="#FF7C00"/>
<path d="M228.98 305.989C226.838 306.149 225.029 304.782 223.814 303.641C222.258 302.182 221.136 300.209 220.907 297.888C220.763 296.294 220.909 294.624 221.476 292.984C221.59 292.577 221.718 292.176 221.907 291.773L222.419 290.584C222.796 289.802 223.259 289.039 223.666 288.294C223.778 288.09 224.023 287.953 224.215 287.986C224.362 288.013 224.434 288.131 224.411 288.275L224.402 288.331C224.285 289.057 224.124 289.771 224.058 290.456C224.057 291.129 223.944 291.81 224.067 292.41C224.133 293.663 224.602 294.691 225.184 295.525C226.537 297.462 229.528 297.617 231.519 298.859C232.87 299.703 234.098 300.702 235.049 301.929C235.886 303.009 236.591 304.425 236.983 305.793C236.053 306.32 234.513 305.873 233.612 305.907C232.057 305.965 230.527 305.954 228.98 305.989Z" fill="#FF7C00"/>
<path d="M267.804 305.989C269.887 306.149 272.212 304.782 273.859 303.641C275.967 302.182 277.837 300.209 278.944 297.888C279.692 296.294 280.176 294.624 280.23 292.984C280.271 292.577 280.295 292.176 280.258 291.773L280.196 290.584C280.115 289.802 279.941 289.039 279.816 288.294C279.781 288.09 279.587 287.953 279.383 287.986C279.227 288.013 279.11 288.131 279.078 288.276L279.066 288.331C278.908 289.057 278.799 289.771 278.606 290.456C278.352 291.129 278.206 291.81 277.857 292.41C277.316 293.663 276.458 294.691 275.56 295.525C273.475 297.462 270.425 297.617 267.965 298.859C266.293 299.703 264.688 300.702 263.272 301.929C262.027 303.009 260.784 304.425 259.876 305.793C260.606 306.32 262.315 305.873 263.205 305.907C264.737 305.965 266.271 305.954 267.804 305.989Z" fill="#FF7C00"/>
<path d="M253.641 305.989C255.784 306.149 257.593 304.782 258.808 303.641C260.364 302.182 261.486 300.209 261.715 297.888C261.859 296.294 261.713 294.624 261.145 292.984C261.033 292.577 260.904 292.176 260.715 291.773L260.203 290.584C259.826 289.802 259.363 289.039 258.955 288.294C258.844 288.09 258.599 287.953 258.407 287.986C258.26 288.013 258.188 288.131 258.21 288.275L258.22 288.331C258.337 289.057 258.499 289.771 258.564 290.456C258.565 291.129 258.677 291.81 258.555 292.41C258.488 293.663 258.02 294.691 257.438 295.525C256.085 297.462 253.094 297.617 251.103 298.859C249.752 299.703 248.524 300.702 247.573 301.929C246.737 303.009 246.03 304.425 245.639 305.793C246.569 306.32 248.108 305.873 249.01 305.907C250.565 305.965 252.095 305.954 253.641 305.989Z" fill="#FF7C00"/>
<g opacity="0.690002">
<g opacity="0.690002">
<path opacity="0.690002" d="M243.679 197.997C243.432 198.78 243.306 199.501 243.251 200.177C243.209 200.863 243.257 201.513 243.33 202.133C243.499 203.385 243.878 204.565 244.3 205.707C244.746 206.873 245.279 207.858 245.907 209.059C246.535 210.233 247.224 211.479 247.906 212.86C248.586 214.243 249.263 215.768 249.738 217.481C249.969 218.349 250.154 219.217 250.264 220.22C250.356 221.193 250.352 222.165 250.242 223.127C250.018 225.046 249.361 226.961 248.184 228.576C247.589 229.378 246.863 230.087 246.035 230.617C245.197 231.142 244.254 231.454 243.332 231.507L242.922 230.881C243.256 230.086 243.432 229.362 243.536 228.702C243.631 228.032 243.618 227.394 243.588 226.799C243.504 225.591 243.239 224.456 242.928 223.363C242.768 222.816 242.576 222.288 242.39 221.778L241.716 220.152L240.097 216.401C239.519 215.036 238.928 213.545 238.462 211.903C238.23 211.074 238.043 210.234 237.894 209.297C237.79 208.372 237.703 207.453 237.748 206.524C237.804 204.674 238.233 202.789 239.119 201.102C239.57 200.263 240.139 199.485 240.825 198.845C241.519 198.207 242.324 197.726 243.164 197.453L243.679 197.997Z" fill="white"/>
</g>
<g opacity="0.690002">
<path opacity="0.690002" d="M262.136 202.754C261.933 203.396 261.83 203.987 261.785 204.543C261.75 205.104 261.79 205.637 261.85 206.147C261.989 207.173 262.299 208.141 262.646 209.079C263.011 210.034 263.448 210.843 263.963 211.827C264.478 212.79 265.043 213.813 265.603 214.945C266.161 216.08 266.716 217.331 267.106 218.736C267.295 219.448 267.447 220.16 267.536 220.982C267.613 221.78 267.61 222.578 267.519 223.367C267.336 224.941 266.796 226.512 265.831 227.837C265.343 228.494 264.748 229.075 264.067 229.51C263.381 229.941 262.608 230.197 261.851 230.24L261.515 229.726C261.789 229.074 261.933 228.481 262.019 227.94C262.097 227.389 262.085 226.867 262.061 226.378C261.992 225.388 261.775 224.457 261.52 223.56C261.389 223.112 261.231 222.679 261.079 222.26L260.525 220.926L259.198 217.849C258.724 216.73 258.239 215.507 257.857 214.16C257.667 213.48 257.513 212.791 257.391 212.022C257.305 211.264 257.234 210.511 257.272 209.747C257.317 208.231 257.67 206.685 258.396 205.301C258.766 204.613 259.233 203.975 259.795 203.45C260.364 202.927 261.025 202.531 261.714 202.308L262.136 202.754Z" fill="white"/>
</g>
<g opacity="0.690002">
<path opacity="0.690002" d="M226.475 202.754C226.272 203.396 226.169 203.987 226.124 204.543C226.09 205.104 226.13 205.637 226.189 206.147C226.328 207.173 226.638 208.141 226.984 209.079C227.351 210.034 227.787 210.843 228.303 211.827C228.818 212.79 229.382 213.813 229.942 214.945C230.5 216.08 231.055 217.331 231.445 218.736C231.635 219.448 231.786 220.16 231.876 220.982C231.951 221.78 231.948 222.578 231.859 223.367C231.674 224.941 231.136 226.512 230.17 227.837C229.682 228.494 229.087 229.075 228.407 229.51C227.721 229.941 226.947 230.197 226.19 230.24L225.854 229.726C226.128 229.074 226.273 228.481 226.358 227.94C226.436 227.389 226.425 226.867 226.4 226.378C226.331 225.388 226.115 224.457 225.859 223.56C225.728 223.112 225.57 222.679 225.418 222.26L224.865 220.926L223.537 217.849C223.063 216.73 222.578 215.507 222.196 214.16C222.006 213.48 221.852 212.791 221.731 212.022C221.644 211.264 221.573 210.511 221.611 209.747C221.656 208.231 222.008 206.685 222.735 205.301C223.105 204.613 223.572 203.975 224.134 203.45C224.703 202.927 225.364 202.531 226.054 202.308L226.475 202.754Z" fill="white"/>
</g>
</g>
<path d="M201.349 225.284C195.506 220.579 188.944 216.957 181.843 214.518L182.151 213.629C189.356 216.104 196.015 219.78 201.943 224.553L201.349 225.284Z" fill="#333333"/>
<path d="M207.13 223.01C202.255 215.386 188.993 209 185.044 207.224L185.433 206.368C189.442 208.171 202.912 214.662 207.927 222.505L207.13 223.01Z" fill="#333333"/>
<path d="M208.674 215.05C203.11 209.919 197.49 205.9 190.765 201.445L191.289 200.663C198.052 205.143 203.706 209.187 209.316 214.362L208.674 215.05Z" fill="#333333"/>
<path d="M338.062 230.525C335.516 224.472 330.482 220.592 323.945 220.199C323.951 220.272 323.963 220.349 323.965 220.422C324.017 221.798 323.853 223.183 323.606 224.535C323.301 226.204 322.889 227.83 322.359 229.418C322.411 229.492 322.442 229.583 322.435 229.691L322.096 234.29C321.95 236.27 320.844 238.056 319.132 239.074C318.341 239.544 317.447 239.815 316.114 239.521L305.407 240.045C303.574 240.134 302.527 242.171 303.527 243.702C305.307 246.431 309.47 247.889 309.47 247.889C309.179 250.752 312.082 252.652 312.082 252.652C313.584 256.823 316.997 258.108 316.997 258.108C317.155 258.31 317.319 258.505 317.486 258.69C321.064 262.668 327.28 262.87 331.382 259.427L333.784 257.519C338.159 253.847 339.575 250.153 340.234 245.126C340.409 240.129 340.007 235.152 338.062 230.525Z" fill="#F4BBA6"/>
<path d="M260.772 135.599C260.33 135.542 260.569 99.7327 260.569 99.7327H222.193C222.193 99.7327 222.276 136.699 221.997 136.709C219.15 136.804 217.286 137.134 214.65 136.976C214.627 142.614 219.477 150.655 221.4 153.419C225.037 158.645 229.834 163.19 235.671 165.884C241.966 168.79 248.185 167.59 253.39 162.843C257.401 159.184 260.194 154.229 262.562 149.413C263.01 148.5 268.018 135.956 267.608 135.943C265.434 135.876 263.454 135.943 260.772 135.599Z" fill="#F4BBA6"/>
<path d="M260.485 120.058V115.3H222.193V124.114C226.322 134.35 232.589 141.766 240.684 141.766C249.749 141.766 256.524 132.466 260.568 120.317C260.521 120.246 260.485 120.164 260.485 120.058Z" fill="#F19D80"/>
<path d="M270.034 82.6693C270.034 103.861 259.137 129.696 240.031 129.696C220.924 129.696 210.028 103.861 210.028 82.6693C210.028 61.4772 220.924 44.2976 240.031 44.2976C259.137 44.2976 270.034 61.4772 270.034 82.6693Z" fill="#FFAA8B"/>
<path d="M265.205 87.8236C265.205 106.694 255.74 129.697 239.142 129.697C222.545 129.697 213.079 106.694 213.079 87.8236C213.079 68.9544 222.545 53.6577 239.142 53.6577C255.74 53.6577 265.205 68.9544 265.205 87.8236Z" fill="#F4BBA6"/>
<path d="M239.898 100.482C238.165 100.458 236.67 100.134 235.559 99.7885C235.003 99.6152 234.571 100.295 234.976 100.712C235.92 101.683 237.025 102.53 238.378 102.942C238.846 103.084 239.366 103.171 239.898 103.209C240.431 103.171 240.951 103.084 241.419 102.942C242.772 102.53 243.877 101.683 244.821 100.712C245.226 100.295 244.794 99.6152 244.237 99.7885C243.127 100.134 241.632 100.458 239.898 100.482Z" fill="#BC6649"/>
<path d="M219.358 83.224C219.934 82.032 221.013 81.0737 222.279 80.4156C223.543 79.7397 225.028 79.3722 226.543 79.3334C228.059 79.299 229.582 79.591 230.929 80.1908C232.277 80.7734 233.485 81.6533 234.248 82.7931C234.408 83.0313 234.326 83.3346 234.067 83.4705C233.924 83.5444 233.758 83.5534 233.61 83.5064L233.588 83.4996C232.333 83.0978 231.198 82.7931 230.066 82.5914C228.933 82.4054 227.829 82.3091 226.743 82.3374C225.658 82.3621 224.576 82.5122 223.48 82.7579C222.387 83.0209 221.309 83.3898 220.13 83.8776L220.11 83.8858C219.837 83.9993 219.506 83.8888 219.371 83.6393C219.296 83.5026 219.298 83.3502 219.358 83.224Z" fill="#002344"/>
<path d="M260.882 83.224C260.306 82.032 259.227 81.0737 257.961 80.4156C256.697 79.7397 255.212 79.3722 253.697 79.3334C252.181 79.299 250.659 79.591 249.311 80.1908C247.962 80.7734 246.756 81.6533 245.992 82.7931C245.832 83.0313 245.914 83.3346 246.173 83.4705C246.316 83.5444 246.482 83.5534 246.63 83.5064L246.652 83.4996C247.907 83.0978 249.042 82.7931 250.174 82.5914C251.307 82.4054 252.411 82.3091 253.497 82.3374C254.582 82.3621 255.664 82.5122 256.76 82.7579C257.853 83.0209 258.931 83.3898 260.109 83.8776L260.13 83.8858C260.403 83.9993 260.735 83.8888 260.869 83.6393C260.944 83.5026 260.942 83.3502 260.882 83.224Z" fill="#002344"/>
<path d="M227.708 100.862C227.708 102.945 225.39 104.632 222.53 104.632C219.671 104.632 217.352 102.945 217.352 100.862C217.352 98.7808 219.671 97.0935 222.53 97.0935C225.39 97.0935 227.708 98.7808 227.708 100.862Z" fill="#FF7E6F"/>
<path d="M261.921 100.862C261.921 102.945 259.603 104.632 256.744 104.632C253.884 104.632 251.566 102.945 251.566 100.862C251.566 98.7808 253.884 97.0935 256.744 97.0935C259.603 97.0935 261.921 98.7808 261.921 100.862Z" fill="#FF7E6F"/>
<path d="M250.071 112.67C250.071 116.014 245.442 120.252 240.379 120.419C235.13 120.591 230.861 116.187 230.861 112.842C230.861 109.498 235.285 107.735 240.351 107.735C245.416 107.735 250.071 109.326 250.071 112.67Z" fill="#FF604D"/>
<path d="M230.526 109.611C229.295 109.45 228.475 111.129 229.312 112.236C231.411 115.007 235.405 117.049 240.031 117.041C244.658 117.049 248.649 115.007 250.749 112.236C251.587 111.129 250.768 109.45 249.535 109.611C243.218 110.423 236.844 110.423 230.526 109.611Z" fill="white"/>
<path d="M229.58 90.1599C229.58 91.7202 228.514 92.9847 227.198 92.9847C225.882 92.9847 224.815 91.7202 224.815 90.1599C224.815 88.5996 225.882 87.3344 227.198 87.3344C228.514 87.3344 229.58 88.5996 229.58 90.1599Z" fill="#002344"/>
<path d="M256.232 90.1599C256.232 91.7202 255.165 92.9847 253.85 92.9847C252.533 92.9847 251.467 91.7202 251.467 90.1599C251.467 88.5996 252.533 87.3344 253.85 87.3344C255.165 87.3344 256.232 88.5996 256.232 90.1599Z" fill="#002344"/>
<path d="M250.121 44.0622C252.685 49.841 250.143 57.3662 244.592 60.4315C240.226 62.8432 235.236 62.6528 230.399 63.8867C216.901 67.3307 209.862 83.6297 213.093 103.373C213.093 103.373 182.98 69.741 213.44 45.9803C236.158 28.2583 250.121 44.0622 250.121 44.0622Z" fill="#002344"/>
<path d="M256.196 70.6166C260.632 74.1046 265.531 78.5219 267.608 83.6875C268.784 86.6131 270.319 94.9935 266.743 103.947C263.737 115.012 260.365 118.488 261.897 121.394C265.442 128.118 272.107 117.434 276.088 110.03C278.538 105.473 279.088 94.1905 281.165 80.416C282.683 70.344 277.946 55.9719 271.473 47.8172C268.883 44.5539 264.226 41.7298 260.281 40.3563C251.051 37.1423 243.063 44.1946 242.744 51.4905C242.398 59.4107 245.801 64.0595 254.17 69.0316C254.904 69.4686 255.521 70.0855 256.196 70.6166Z" fill="#002344"/>
<path d="M271.593 83.9676C270.448 83.7801 269.259 84.5621 268.271 85.9641C269.108 90.3021 269.122 95.1944 267.893 99.569C268.207 99.8185 268.553 99.9888 268.93 100.051C271.162 100.416 273.568 97.1124 274.303 92.6713C275.039 88.2302 273.825 84.3336 271.593 83.9676Z" fill="#FFAA8B"/>
<path d="M270.793 87.4907C270.075 87.3846 269.33 87.8268 268.711 88.6193C269.235 91.0729 269.244 93.8394 268.473 96.3132C268.67 96.4536 268.887 96.5499 269.123 96.5851C270.523 96.7919 272.031 94.9239 272.493 92.4121C272.953 89.901 272.192 87.6976 270.793 87.4907Z" fill="#D7866B"/>
<path d="M313.41 248.641C311.883 248.641 310.359 248.49 308.868 248.185L309.058 247.264C313.298 248.132 317.833 247.698 321.829 246.044L322.191 246.912C319.428 248.057 316.415 248.641 313.41 248.641Z" fill="#333333"/>
<path d="M315.747 253.926C314.365 253.926 312.983 253.792 311.626 253.521L311.812 252.6C316.052 253.445 320.538 252.894 324.443 251.043L324.849 251.891C322.012 253.236 318.881 253.926 315.747 253.926Z" fill="#333333"/>
<path d="M318.932 258.763C318.255 258.763 317.575 258.71 316.904 258.601L317.056 257.673C320.826 258.287 324.845 257.003 327.548 254.319L328.215 254.984C325.782 257.399 322.36 258.763 318.932 258.763Z" fill="#333333"/>
<path d="M198.489 148.827C198.489 148.827 203.369 166.006 194.735 179.824L168.084 200.364L131.297 195.135C131.297 195.135 143.309 193.268 154.946 195.135L192.108 170.487C192.108 170.487 197.363 165.259 198.489 148.827Z" fill="#F0F0F0"/>
<path d="M284.075 145.466C284.075 145.466 286.327 172.355 292.333 180.197C298.339 188.04 326.867 217.543 326.867 217.543C326.867 217.543 344.51 215.302 353.894 219.783C353.894 219.783 341.882 212.314 332.123 212.314L304.598 183.288C297.987 176.316 292.81 168.123 289.359 159.174L284.075 145.466Z" fill="#F0F0F0"/>
<path d="M125.188 101.678C125.188 102.658 124.389 103.452 123.404 103.452C122.42 103.452 121.621 102.658 121.621 101.678C121.621 100.698 122.42 99.9043 123.404 99.9043C124.389 99.9043 125.188 100.698 125.188 101.678Z" fill="white"/>
<path d="M44.5128 314.081H28.1525L29.4723 286.943H43.1938L44.5128 314.081Z" fill="#A0CDCB"/>
<path d="M30.6215 310.044L31.5246 294.579C31.5772 293.682 32.3242 292.98 33.2281 292.98H39.4375C40.3414 292.98 41.0884 293.682 41.141 294.579L42.0441 310.044C42.1012 311.019 41.3219 311.84 40.3414 311.84H32.3249C31.3429 311.84 30.5644 311.019 30.6215 310.044Z" fill="white"/>
<path d="M43.1679 287.441H29.4044V282.15C29.4044 280.741 30.5523 279.598 31.969 279.598H40.6026C42.0193 279.598 43.1679 280.741 43.1679 282.15V287.441Z" fill="#00325D"/>
<path d="M33.2986 309.428C33.2986 309.763 33.0253 310.034 32.689 310.034C32.3519 310.034 32.0786 309.763 32.0786 309.428C32.0786 309.093 32.3519 308.821 32.689 308.821C33.0253 308.821 33.2986 309.093 33.2986 309.428Z" fill="#D5D5D5"/>
<path d="M39.1168 296.793C39.1168 297.128 38.8435 297.4 38.5072 297.4C38.1701 297.4 37.8969 297.128 37.8969 296.793C37.8969 296.458 38.1701 296.187 38.5072 296.187C38.8435 296.187 39.1168 296.458 39.1168 296.793Z" fill="#D5D5D5"/>
<path d="M34.8001 299.781C34.8001 300.115 34.5268 300.387 34.1904 300.387C33.8534 300.387 33.5801 300.115 33.5801 299.781C33.5801 299.445 33.8534 299.174 34.1904 299.174C34.5268 299.174 34.8001 299.445 34.8001 299.781Z" fill="#D5D5D5"/>
<path d="M38.2099 305.865C38.2099 306.2 37.9367 306.471 37.6003 306.471C37.2633 306.471 36.99 306.2 36.99 305.865C36.99 305.529 37.2633 305.258 37.6003 305.258C37.9367 305.258 38.2099 305.529 38.2099 305.865Z" fill="#D5D5D5"/>
<path d="M40.243 309.428C40.243 309.763 39.9698 310.034 39.6334 310.034C39.2963 310.034 39.0231 309.763 39.0231 309.428C39.0231 309.093 39.2963 308.821 39.6334 308.821C39.9698 308.821 40.243 309.093 40.243 309.428Z" fill="#D5D5D5"/>
<path d="M67.223 314.081H50.8627L52.1825 286.943H65.904L67.223 314.081Z" fill="#A0CDCB"/>
<path d="M53.3317 310.044L54.2348 294.579C54.2874 293.682 55.0344 292.98 55.9383 292.98H62.1477C63.0516 292.98 63.7986 293.682 63.8512 294.579L64.7544 310.044C64.8114 311.019 64.0321 311.84 63.0516 311.84H55.0351C54.0532 311.84 53.2746 311.019 53.3317 310.044Z" fill="#00325D"/>
<path d="M65.8781 287.441H52.1146V282.15C52.1146 280.741 53.2625 279.598 54.6792 279.598H63.3128C64.7295 279.598 65.8781 280.741 65.8781 282.15V287.441Z" fill="#00325D"/>
<path d="M56.0088 309.428C56.0088 309.763 55.7355 310.034 55.3992 310.034C55.0621 310.034 54.7888 309.763 54.7888 309.428C54.7888 309.093 55.0621 308.821 55.3992 308.821C55.7355 308.821 56.0088 309.093 56.0088 309.428Z" fill="#00579D"/>
<path d="M61.8272 296.793C61.8272 297.128 61.5539 297.4 61.2175 297.4C60.8805 297.4 60.6072 297.128 60.6072 296.793C60.6072 296.458 60.8805 296.187 61.2175 296.187C61.5539 296.187 61.8272 296.458 61.8272 296.793Z" fill="#00579D"/>
<path d="M57.5103 299.781C57.5103 300.115 57.237 300.387 56.9006 300.387C56.5636 300.387 56.2903 300.115 56.2903 299.781C56.2903 299.445 56.5636 299.174 56.9006 299.174C57.237 299.174 57.5103 299.445 57.5103 299.781Z" fill="#00579D"/>
<path d="M60.9202 305.865C60.9202 306.2 60.6469 306.471 60.3106 306.471C59.9735 306.471 59.7002 306.2 59.7002 305.865C59.7002 305.529 59.9735 305.258 60.3106 305.258C60.6469 305.258 60.9202 305.529 60.9202 305.865Z" fill="#00579D"/>
<path d="M62.9533 309.428C62.9533 309.763 62.68 310.034 62.3436 310.034C62.0066 310.034 61.7333 309.763 61.7333 309.428C61.7333 309.093 62.0066 308.821 62.3436 308.821C62.68 308.821 62.9533 309.093 62.9533 309.428Z" fill="#00579D"/>
<path d="M430.519 229.762L423.805 229.768L423.771 192.067C423.769 190.222 425.271 188.726 427.125 188.725C428.979 188.723 430.484 190.217 430.486 192.061L430.519 229.762Z" fill="#002344"/>
<path d="M425.438 287.037L423.607 290.784L423.545 219.638L441.004 219.623C441.025 242.979 435.701 266.032 425.438 287.037Z" fill="#B6C2CB"/>
<path d="M435.517 219.628C435.517 220.78 435.472 221.925 435.393 223.083C435.163 226.479 434.865 229.869 434.658 233.266C433.922 245.402 431.844 257.278 429.881 269.264C428.672 276.652 426.142 283.678 423.642 290.714L425.438 287.037C435.701 266.032 441.025 242.979 441.005 219.623L435.517 219.628Z" fill="#B6C2CB"/>
<path d="M452.479 229.762L445.764 229.768L445.731 192.067C445.729 190.222 447.231 188.726 449.085 188.725C450.939 188.723 452.443 190.217 452.446 192.061L452.479 229.762Z" fill="#002344"/>
<path d="M447.397 287.037L445.567 290.784L445.505 219.638L462.963 219.623C462.984 242.979 457.661 266.032 447.397 287.037Z" fill="#B6C2CB"/>
<path d="M457.476 219.628C457.476 220.78 457.431 221.925 457.353 223.083C457.122 226.479 456.824 229.869 456.618 233.266C455.881 245.402 453.803 257.278 451.841 269.264C450.631 276.652 448.101 283.678 445.601 290.714L447.397 287.037C457.661 266.032 462.984 242.979 462.964 219.623L457.476 219.628Z" fill="#B6C2CB"/>
<path d="M418.77 314.964H466.86V248.16C466.86 246.203 465.266 244.618 463.299 244.618H422.33C420.364 244.618 418.77 246.203 418.77 248.16V314.964Z" fill="#FF966D"/>
<path d="M463.299 244.618H454.579V299.142C454.579 303.887 450.714 307.732 445.946 307.732H418.77V314.964H466.859V248.16C466.859 246.204 465.266 244.618 463.299 244.618Z" fill="#D2DFE7"/>
<path d="M378.288 291.592C380.924 301.336 374.399 311.554 363.716 314.414C353.032 317.275 342.235 311.695 339.599 301.951C338.114 296.463 338.87 290.782 342.304 286.392C344.967 282.989 351.039 282.334 355.616 282.076C360.363 280.052 365.36 278.188 369.841 280.739C373.867 283.032 377.041 286.981 378.288 291.592Z" fill="#FF0600"/>
<path d="M363.693 271.087C364.692 271.845 364.622 273.36 364.272 274.559C363.282 277.956 360.747 280.852 357.555 282.385C357.017 282.644 355.786 283.414 355.45 282.723C355.201 282.214 356.08 280.59 356.288 280.094C357.005 278.387 357.957 276.78 359.108 275.328C360.404 273.69 361.953 272.248 363.693 271.087Z" fill="#005C00"/>
<path d="M351.692 270.193C352.883 269.978 354.034 270.953 354.77 271.924C356.853 274.674 357.624 278.166 356.931 281.271C356.813 281.793 356.687 283.1 355.943 282.906C355.396 282.764 354.64 281.173 354.374 280.729C353.458 279.199 352.76 277.569 352.301 275.9C351.784 274.018 351.571 272.084 351.692 270.193Z" fill="#005C00"/>
<path d="M343.731 277.104C344.414 276.109 345.919 275.979 347.131 276.14C350.562 276.594 353.602 278.5 355.338 281.172C355.631 281.623 356.478 282.629 355.815 283.021C355.328 283.308 353.661 282.726 353.156 282.603C351.416 282.178 349.759 281.528 348.243 280.68C346.533 279.725 345 278.519 343.731 277.104Z" fill="#005C00"/>
<path d="M369.841 280.739C367.829 279.593 365.711 279.342 363.56 279.592C369.673 282.869 371.669 292.421 370.712 298.753C369.892 304.175 367.725 310.538 362.832 313.604C361.894 314.191 360.904 314.677 359.878 315.083C361.149 314.976 362.434 314.758 363.716 314.414C374.399 311.553 380.924 301.336 378.288 291.592C377.041 286.981 373.868 283.032 369.841 280.739Z" fill="#CB0300"/>
<path d="M386.25 293.225C383.544 301.691 388.134 310.787 396.628 313.644C405.124 316.501 414.319 312.043 417.333 303.682L386.25 293.225Z" fill="#FF0600"/>
<path d="M390.321 294.595C388.324 300.843 391.712 307.556 397.981 309.666C404.251 311.775 411.038 308.484 413.263 302.312L390.321 294.595Z" fill="#CB0300"/>
<path d="M407.654 302.464C407.384 301.453 406.01 301.783 406.09 302.785C406.176 303.865 406.277 305.364 407.186 306.081C407.525 306.348 408.046 306.126 408.175 305.749C408.51 304.765 407.913 303.433 407.654 302.464Z" fill="#FF0600"/>
<path d="M403.388 302.652C403.348 301.927 402.48 301.557 402.007 302.189C401.171 303.305 400.664 304.519 400.324 305.859C399.929 307.415 402.18 308.222 402.728 306.668C403.195 305.348 403.463 304.061 403.388 302.652Z" fill="#FF0600"/>
<path d="M398.918 301.157C399.005 300.659 398.318 300.201 397.89 300.481C396.788 301.203 396.002 302.342 395.153 303.331C394.219 304.421 396.102 305.699 397.02 304.588C397.85 303.58 398.691 302.468 398.918 301.157Z" fill="#FF0600"/>
<path d="M395.478 298.028C394.717 297.367 393.059 297.811 392.177 298.037C390.926 298.355 391.333 300.066 392.574 299.954C393.495 299.871 395.141 299.747 395.638 298.855C395.81 298.546 395.741 298.257 395.478 298.028Z" fill="#FF0600"/>
<path d="M88.092 268.404C87.7676 267.098 87.586 265.507 88.5845 264.601C90.0544 263.267 92.396 264.732 93.5199 266.366C94.6445 267.998 95.7804 270.082 97.7661 270.206C99.5176 270.317 100.93 268.733 101.578 267.111C102.227 265.488 102.424 263.685 103.301 262.172C104.178 260.659 106.14 259.511 107.684 260.343C110.526 261.875 108.184 267.209 110.874 268.995C112.221 269.89 113.738 270.573 115.428 268.986C116.605 267.879 119.169 263.959 120.777 263.757C123.515 263.415 124.718 265.811 123.78 269.079C123.021 271.719 121.751 276.323 120.214 278.602C117.525 282.588 116.03 286.691 111.652 288.709C98.5192 294.758 90.6558 278.727 88.092 268.404Z" fill="#005C00"/>
<path d="M100.01 272.736C99.1697 271.316 97.7328 269.809 96.139 270.257C94.3267 270.766 94.0639 273.263 92.6803 274.534C91.3462 275.761 89.1795 275.586 87.5827 274.726C85.9858 273.866 84.7696 272.463 83.4062 271.268C82.0436 270.075 80.3597 269.029 78.5481 269.152C76.7358 269.275 74.9948 271.064 75.5384 272.787C75.8154 273.668 76.5744 274.295 77.1675 275.004C77.7606 275.714 78.214 276.727 77.7689 277.537C76.2088 277.917 74.624 277.181 73.0526 276.849C71.4813 276.516 69.4355 276.863 68.9498 278.387C68.3755 280.19 70.4243 281.661 72.148 282.461C77.1082 284.759 82.1097 287.072 87.4325 288.336C90.6615 289.101 100.596 290.953 103.108 287.727C105.563 284.576 101.648 275.504 100.01 272.736Z" fill="#009000"/>
<path d="M118.916 271.51C119.804 270.445 120.829 269.401 122.16 268.999C123.491 268.596 125.181 269.069 125.713 270.348C126.263 271.67 125.418 273.226 125.84 274.593C126.459 276.598 129.385 276.87 131.19 275.785C132.994 274.7 134.134 272.805 135.711 271.413C136.524 270.694 137.513 270.091 138.6 270.053C139.687 270.014 140.849 270.699 141.052 271.762C141.396 273.566 139.019 275.29 139.811 276.949C140.533 278.465 142.851 277.894 144.225 276.921C145.599 275.949 147.398 274.756 148.786 275.707C149.525 278.136 147.792 280.596 145.958 282.358C139.335 288.721 129.816 291.779 120.694 290.993C118.383 290.793 116.061 290.365 113.856 289.64C111.208 288.771 110.462 288.498 111.145 285.771C112.377 280.857 115.696 275.371 118.916 271.51Z" fill="#009000"/>
<path d="M75.2235 284.391C75.722 302.005 90.2198 316.135 108.045 316.135C125.871 316.135 140.368 302.005 140.868 284.391H75.2235Z" fill="url(#paint1_linear)"/>
<path d="M123.422 284.391C123.009 288.383 122.422 292.355 121.602 296.285C120.237 302.823 118.21 309.348 115.191 315.349C129.596 312.167 140.437 299.579 140.867 284.391H123.422Z" fill="#FF3800"/>
<path d="M480.911 333H6.83606V313.955H480.911V333Z" fill="#333333"/>
<defs>
<linearGradient id="paint0_linear" x1="243.534" y1="295.595" x2="243.534" y2="132.827" gradientUnits="userSpaceOnUse">
<stop stop-color="#F9BC2F"/>
<stop offset="0.004329" stop-color="#DBB96B"/>
<stop offset="1" stop-color="#F9BC2F"/>
</linearGradient>
<linearGradient id="paint1_linear" x1="75.2237" y1="300.263" x2="140.867" y2="300.263" gradientUnits="userSpaceOnUse">
<stop stop-color="#FF3800"/>
<stop offset="0.004329" stop-color="#FF3800"/>
<stop offset="1" stop-color="#FF5700"/>
</linearGradient>
</defs>
</svg>
