<?xml version="1.0" standalone="no"?>
<!DOCTYPE svg PUBLIC "-//W3C//DTD SVG 20010904//EN"
 "http://www.w3.org/TR/2001/REC-SVG-20010904/DTD/svg10.dtd">
<svg version="1.0" xmlns="http://www.w3.org/2000/svg"
 width="880.000000pt" height="1060.000000pt" viewBox="0 0 880.000000 1060.000000"
 preserveAspectRatio="xMidYMid meet">
<metadata>
Created by potrace 1.16, written by Peter Selinger 2001-2019
</metadata>
<g transform="translate(0.000000,1060.000000) scale(0.100000,-0.100000)"
fill="#000000" stroke="none">
<path d="M7294 10186 c-430 -99 -765 -487 -1251 -1451 -129 -257 -189 -365
-202 -365 -4 0 -20 30 -35 68 -84 207 -243 402 -431 530 -45 30 -76 60 -87 82
-9 19 -34 73 -56 120 -85 185 -242 336 -449 431 -49 22 -96 48 -106 57 -10 8
-40 62 -67 118 -78 162 -191 260 -370 320 -90 31 -251 26 -368 -9 l-93 -29
-87 28 c-101 32 -246 43 -333 25 -173 -36 -379 -209 -464 -387 -36 -77 -61
-100 -142 -136 -76 -33 -152 -90 -229 -169 -120 -125 -191 -255 -225 -413 -22
-104 -27 -110 -134 -163 -258 -131 -433 -345 -496 -610 -26 -110 -28 -267 -4
-372 10 -40 15 -88 12 -106 -3 -17 -27 -79 -54 -136 l-48 -104 -3 -168 c-2
-93 1 -188 6 -213 6 -27 6 -44 0 -44 -5 0 -39 24 -76 53 -190 150 -322 210
-509 228 -82 7 -109 7 -136 -5 -38 -16 -93 -92 -103 -142 -19 -99 88 -194 219
-194 92 0 225 -66 336 -167 l55 -49 -125 -49 c-404 -157 -603 -333 -688 -609
-32 -103 -37 -210 -16 -360 14 -108 15 -139 5 -190 -8 -41 -10 -108 -5 -206
30 -668 267 -4015 296 -4185 33 -194 129 -375 277 -519 93 -91 172 -145 327
-223 l130 -66 2400 -4 c2616 -5 2839 -2 2960 40 216 75 389 207 528 402 100
141 123 217 157 505 32 275 49 508 260 3535 27 391 52 733 55 762 5 48 3 54
-36 103 -35 45 -57 62 -143 115 -15 9 -9 39 59 285 126 456 207 794 269 1120
123 654 200 1353 200 1825 0 205 -2 227 -26 317 -31 115 -117 300 -192 412
-109 163 -258 285 -414 339 -104 36 -250 45 -348 23z m318 -374 c123 -60 215
-183 278 -370 45 -134 52 -219 40 -487 -42 -921 -210 -1879 -501 -2855 -82
-274 -104 -327 -152 -366 -43 -34 -304 -155 -402 -186 -54 -17 -94 -22 -173
-22 l-104 0 -188 97 c-251 129 -339 158 -495 165 -212 8 -317 -19 -570 -149
-227 -116 -265 -126 -265 -69 0 56 186 618 326 982 150 392 358 843 801 1728
463 929 595 1147 821 1361 107 101 176 148 275 185 51 20 78 23 152 21 79 -2
99 -6 157 -35z m-4046 -47 c35 -10 74 -36 134 -88 l85 -74 78 68 c93 83 123
99 193 106 114 12 205 -44 239 -147 19 -56 23 -166 10 -257 l-7 -53 104 0
c214 -1 344 -45 441 -149 68 -74 103 -158 124 -300 8 -58 16 -106 17 -107 0
-1 39 -15 85 -33 108 -41 202 -103 282 -189 129 -136 164 -240 157 -461 -4
-107 -9 -150 -27 -201 -42 -120 -65 -125 -189 -43 -47 31 -131 83 -186 115
-56 33 -111 69 -123 81 -29 26 -29 53 -2 68 11 6 31 34 44 62 57 124 59 314 5
423 -52 106 -173 200 -291 225 -40 9 -71 8 -152 -6 -270 -44 -1003 -215 -1100
-257 -58 -25 -136 -109 -175 -188 -49 -101 -40 -249 24 -390 32 -69 51 -89
147 -158 43 -30 81 -61 84 -69 6 -15 -16 -51 -122 -198 -166 -230 -255 -437
-255 -589 0 -27 -5 -46 -11 -46 -6 0 -65 51 -131 113 -241 226 -392 311 -589
332 -122 13 -240 -14 -427 -98 -131 -58 -132 -57 -132 38 0 135 44 224 156
315 35 29 64 56 64 61 0 5 -23 54 -50 110 -68 135 -84 200 -77 314 13 203 93
337 245 414 79 40 152 58 311 75 73 8 135 17 138 19 2 3 -8 51 -23 108 -19 75
-27 129 -27 194 0 124 25 185 108 274 95 101 191 141 335 141 92 0 102 13 111
149 6 95 12 121 36 169 34 69 80 107 153 126 71 19 125 19 186 1z m1132 -1308
c15 -18 31 -93 23 -106 -7 -11 -478 -121 -791 -185 -204 -42 -274 -46 -290
-17 -17 33 -12 69 13 85 12 8 236 62 497 119 261 58 484 107 495 110 35 8 42
7 53 -6z m-58 -527 c10 -10 31 -42 45 -69 41 -82 79 -116 231 -206 223 -132
404 -287 404 -344 0 -25 -92 -265 -172 -450 l-53 -125 -115 -43 c-132 -50
-244 -111 -467 -253 -196 -125 -318 -186 -408 -205 -46 -10 -132 -15 -253 -15
-180 0 -183 0 -192 23 -14 32 -37 129 -70 291 -85 420 -64 524 167 840 53 72
110 160 127 196 27 58 31 74 30 151 l-1 86 186 42 c274 61 462 100 494 100 15
1 36 -8 47 -19z m-2053 -970 c143 -71 295 -240 458 -511 82 -138 134 -254 162
-364 14 -56 17 -114 18 -285 0 -193 -2 -219 -18 -244 -24 -36 -26 -36 -272 79
-318 148 -424 175 -609 155 -134 -15 -200 -37 -421 -141 -114 -53 -215 -93
-250 -100 -84 -16 -227 -6 -294 21 -62 24 -395 199 -454 238 l-39 26 4 126 c3
108 7 133 30 181 58 127 172 198 508 319 204 73 297 124 441 241 327 264 419
313 579 304 62 -3 88 -10 157 -45z m2338 -682 c-17 -49 -205 -640 -205 -643 0
-15 -49 1 -141 44 -57 28 -144 62 -194 77 -83 25 -104 28 -260 28 -149 0 -178
-3 -235 -22 -109 -37 -140 -28 -140 40 0 35 2 38 38 47 20 5 78 12 127 15 301
22 483 91 830 316 94 60 173 110 177 110 4 0 5 -6 3 -12z m-2380 -852 c28 -10
129 -55 226 -102 96 -46 208 -95 247 -108 235 -80 443 -47 792 127 l185 92
114 3 c70 3 130 0 155 -8 23 -6 129 -54 236 -105 281 -135 325 -149 480 -149
196 0 345 46 588 182 143 80 163 85 318 81 l129 -4 152 -83 c232 -127 381
-172 562 -172 172 1 257 24 546 153 216 96 262 113 271 105 10 -11 -63 -1159
-176 -2748 -109 -1526 -111 -1543 -205 -1685 -70 -105 -166 -179 -300 -231
l-70 -28 -2605 3 -2605 3 -65 36 c-155 86 -233 167 -308 321 l-46 96 -68 955
c-37 525 -101 1448 -142 2050 -42 602 -78 1119 -80 1148 -3 28 -3 52 0 52 2 0
62 -29 132 -64 228 -114 328 -139 548 -139 206 1 274 19 515 135 92 44 189 86
215 93 63 18 193 13 259 -9z"/>
<path d="M7588 9061 c-48 -16 -89 -53 -108 -97 -22 -50 -91 -129 -132 -150
-25 -13 -43 -13 -145 1 -149 19 -253 19 -327 0 -198 -52 -399 -248 -414 -404
-7 -80 44 -146 133 -170 82 -22 145 21 225 154 60 98 125 124 245 95 83 -20
217 -23 295 -6 231 49 420 226 437 411 7 73 -3 96 -60 139 -37 29 -105 41
-149 27z"/>
<path d="M7375 7957 c-35 -16 -87 -72 -111 -120 -40 -77 -85 -134 -126 -157
-40 -23 -51 -24 -143 -20 -228 11 -478 5 -535 -12 -185 -57 -402 -298 -402
-447 0 -107 75 -178 176 -167 64 7 110 43 158 126 52 89 92 136 141 164 68 39
91 39 258 6 113 -23 167 -29 204 -25 243 31 466 173 561 355 24 46 28 67 29
132 0 82 -12 110 -67 151 -33 25 -104 31 -143 14z"/>
<path d="M6955 6746 c-39 -17 -78 -63 -115 -136 -51 -100 -149 -170 -239 -170
-17 0 -91 12 -163 26 -96 19 -148 24 -188 20 -256 -29 -468 -165 -567 -363
-60 -121 -45 -206 49 -268 49 -32 80 -39 121 -26 47 16 99 73 150 166 73 133
119 152 326 136 195 -16 346 -14 416 4 212 55 439 295 440 466 0 67 -20 102
-81 136 -44 26 -103 29 -149 9z"/>
<path d="M1760 3121 c-176 -4 -272 -10 -286 -19 -51 -28 -103 -123 -90 -163 2
-8 7 -27 11 -42 3 -16 24 -48 47 -73 l41 -44 576 0 c643 1 758 6 799 37 69 51
91 137 54 212 -24 48 -58 70 -127 81 -78 13 -686 20 -1025 11z"/>
<path d="M1553 2421 c-68 -5 -86 -10 -108 -31 -39 -37 -57 -78 -57 -130 0 -55
12 -82 60 -132 l36 -38 756 0 c415 1 799 5 854 10 92 8 100 10 132 41 48 46
59 95 39 165 -9 30 -24 63 -35 74 -43 43 -58 44 -845 46 -412 0 -787 -2 -832
-5z"/>
<path d="M1442 1686 c-83 -87 -81 -154 7 -240 l48 -47 1011 3 c1009 3 1011 3
1039 24 45 34 67 81 68 144 0 109 -41 144 -186 160 -55 6 -477 10 -1015 10
l-921 0 -51 -54z"/>
<path d="M4107 1731 c-78 -16 -127 -80 -127 -164 0 -56 16 -90 60 -132 l31
-30 239 0 c266 0 266 0 318 76 20 29 23 44 20 96 -4 71 -25 106 -79 138 -31
18 -54 20 -229 22 -107 1 -212 -2 -233 -6z"/>
</g>
</svg>
