<svg width="40" height="40" viewBox="0 0 40 40" fill="none" xmlns="http://www.w3.org/2000/svg">
<path d="M34.4794 18.594C34.2937 14.9587 32.2181 11.9747 29.5 11.2636V6.91468C29.5 5.09334 28.9587 3.32936 27.935 1.81394C27.1675 0.678454 25.8831 0 24.5 0C23.6425 0 22.8231 0.261513 22.1406 0.73088C21.5819 0.262747 20.8756 0 20.125 0H16.375C14.6519 0 13.25 1.38343 13.25 3.08388V18.6001C12.5269 18.8351 12 19.4994 12 20.2913C12 20.3536 12.0038 20.4159 12.0106 20.4819L13.7656 36.6433C13.8644 37.5543 14.6388 38.2407 15.5669 38.2407H32.1844C33.1119 38.2407 33.8869 37.5543 33.9856 36.6433L35.7412 20.4782C35.7463 20.4159 35.75 20.353 35.75 20.2907C35.75 19.492 35.2131 18.8222 34.4794 18.594ZM33.2269 18.5033H23.2731C23.5038 15.0506 25.6462 12.3355 28.25 12.3355C30.8538 12.3355 32.9963 15.0506 33.2269 18.5033ZM26.895 2.49856C27.7812 3.81106 28.25 5.33758 28.25 6.91468V11.102H22V12.3355H24.9344C23.3031 13.6523 22.1794 15.9036 22.0244 18.5033H20.75V6.91468C20.75 5.33758 21.2188 3.81106 22.105 2.49856C22.64 1.70662 23.5356 1.23355 24.5 1.23355C25.4644 1.23355 26.36 1.70662 26.895 2.49856ZM19.5325 6.16776H17V4.93421H19.7188C19.6288 5.33943 19.5669 5.75144 19.5325 6.16776ZM19.5 11.102H17V9.86842H19.5V11.102ZM19.5 16.0362H17V14.8026H19.5V16.0362ZM16.375 1.23355H20.125C20.5312 1.23355 20.9131 1.36678 21.2313 1.59807C21.1756 1.66961 21.1163 1.73808 21.065 1.81394C20.6637 2.40789 20.3394 3.04132 20.09 3.70066H17C16.3106 3.70066 15.75 4.25391 15.75 4.93421V6.16776C15.75 6.84807 16.3106 7.40132 17 7.40132H19.5V8.63487H17C16.3106 8.63487 15.75 9.18812 15.75 9.86842V11.102C15.75 11.7823 16.3106 12.3355 17 12.3355H19.5V13.5691H17C16.3106 13.5691 15.75 14.1223 15.75 14.8026V16.0362C15.75 16.7165 16.3106 17.2697 17 17.2697H19.5V18.5033H14.5V3.08388C14.5 2.06373 15.3412 1.23355 16.375 1.23355ZM34.4969 20.3499L32.7419 36.5113C32.7119 36.7938 32.4712 37.0066 32.1838 37.0066H15.5662C15.2787 37.0066 15.0381 36.7938 15.0075 36.5113L13.2537 20.3536C13.2512 20.3326 13.25 20.3123 13.25 20.2907C13.25 19.9854 13.5019 19.7368 13.8112 19.7368H33.9381C34.2481 19.7368 34.5 19.9854 34.5 20.2907C34.5 20.3123 34.4987 20.3326 34.4969 20.3499Z" fill="black"/>
<path d="M22 6.16776H27V7.40132H22V6.16776Z" fill="black"/>
<path d="M22 8.63486H27V9.86842H22V8.63486Z" fill="black"/>
<path d="M25.75 14.8026H27V16.0362H25.75V14.8026Z" fill="black"/>
<path d="M29.5 16.0362H30.75V17.2697H29.5V16.0362Z" fill="black"/>
<path d="M28.25 13.5691H29.5V14.8026H28.25V13.5691Z" fill="black"/>
</svg>
