<svg width="40" height="38" viewBox="0 0 40 38" fill="none" xmlns="http://www.w3.org/2000/svg">
<g clip-path="url(#clip0)">
<path d="M39.335 14.2735C39.2062 13.6064 38.7881 13.0259 38.1575 12.6393C37.8593 12.4567 37.5481 12.2978 37.2306 12.1507C38.6112 11.7558 39.5593 10.4401 39.3443 9.09109C39.2387 8.43055 38.8687 7.8625 38.3018 7.49132C38.2368 7.44862 38.1643 7.42135 38.0962 7.38518C38.095 7.37747 38.0956 7.36976 38.0943 7.36205C37.9887 6.70151 37.6187 6.13346 37.0518 5.76228C36.4637 5.37686 35.7343 5.24878 35.0025 5.39761C34.6812 5.46284 34.3637 5.54585 34.0506 5.64547C34.1556 5.3484 34.2431 5.04718 34.3118 4.74241C34.47 4.04628 34.3331 3.3555 33.9275 2.79813C33.5362 2.26032 32.9375 1.9093 32.2393 1.80849C32.2318 1.80731 32.2243 1.8079 32.2162 1.80672C32.1781 1.74208 32.1493 1.6733 32.1043 1.61223C31.7131 1.07442 31.1143 0.723399 30.4175 0.62319C28.9981 0.41803 27.6093 1.31813 27.1931 2.62914C27.0381 2.32792 26.8706 2.03263 26.6781 1.74979C26.2706 1.15151 25.6587 0.754825 24.9556 0.632677C24.2775 0.515866 23.5931 0.668847 23.0268 1.06494C21.7656 1.94547 21.4956 3.73143 22.4362 4.96476C23.0262 5.73797 23.5412 6.58114 23.965 7.46997L24.0962 7.7451C21.565 7.51444 19.0637 8.35346 17.2262 10.0967C16.7818 10.5183 16.385 10.9879 16.0468 11.4931L0.976833 34.0353C0.400583 34.8974 0.529958 36.0027 1.29058 36.7237C1.73308 37.1441 2.31308 37.3611 2.89996 37.3611C3.32058 37.3611 3.74496 37.2496 4.12371 37.0214L27.8875 22.7248C28.42 22.4046 28.915 22.028 29.3618 21.6035C31.1968 19.8626 32.08 17.4908 31.8368 15.0882L32.1275 15.2127C33.0643 15.6153 33.9531 16.1033 34.7687 16.6636C35.2925 17.023 35.9106 17.1955 36.5237 17.1955C37.4306 17.1955 38.325 16.816 38.8793 16.1021C39.2968 15.5661 39.4587 14.9156 39.335 14.2735ZM36.6581 11.0751C36.0868 11.1611 35.5143 11.2826 34.9506 11.4285C33.9156 11.2399 32.8393 11.2127 31.7643 11.3656L31.6625 11.3805L31.7887 11.218C32.9462 9.73029 34.6681 8.6612 36.515 8.28587C36.9087 8.20463 37.2906 8.26986 37.5925 8.46731C37.8718 8.65112 38.0556 8.93574 38.1093 9.26957C38.2406 10.0932 37.5625 10.9369 36.6581 11.0751ZM35.265 6.55624C35.6593 6.475 36.0412 6.54023 36.3425 6.73768C36.4812 6.82899 36.5962 6.94521 36.6837 7.07981C36.5406 7.08752 36.3975 7.0976 36.2531 7.12665C34.0818 7.5684 32.1393 8.77149 30.7837 10.5142L29.9156 11.6307L28.3962 11.8483L33.2031 7.28793C33.8593 6.94877 34.5525 6.70092 35.265 6.55624ZM32.4881 3.55532C32.5193 3.41835 32.53 3.28257 32.5381 3.14737C32.68 3.23039 32.8025 3.3389 32.8981 3.47053C33.1056 3.75633 33.1737 4.11922 33.0893 4.49277C32.9356 5.17051 32.675 5.82809 32.3175 6.4501L27.5118 11.0093L27.7412 9.56782L28.9181 8.74422C30.7543 7.45811 32.0225 5.61523 32.4881 3.55532ZM28.3262 3.17109C28.4712 2.31309 29.365 1.67212 30.2293 1.79426C30.5812 1.84526 30.8818 2.01958 31.0756 2.28463C31.2831 2.57043 31.3512 2.93332 31.2668 3.30688C30.8706 5.05845 29.7437 6.69261 28.1762 7.79076L28.005 7.91053L28.0206 7.81388C28.1825 6.79401 28.1537 5.77295 27.9543 4.79043C28.1075 4.25559 28.2356 3.71186 28.3262 3.17109ZM23.4481 4.26805C22.9112 3.56362 23.06 2.51233 23.7675 2.01781C23.9925 1.86127 24.2512 1.77885 24.5137 1.77885C24.5856 1.77885 24.6581 1.78537 24.7306 1.79782C25.0906 1.86008 25.4093 2.07117 25.6281 2.39196C26.6537 3.89627 27.0743 5.80793 26.7843 7.636L26.4425 9.78662L25.1037 6.98019C24.6443 6.01784 24.0868 5.10588 23.4481 4.26805ZM28.4756 20.768C28.0962 21.128 27.6731 21.4493 27.2181 21.7233L3.45433 36.0199C3.04433 36.2671 2.51808 36.2108 2.17433 35.8853C1.83058 35.5591 1.77183 35.0599 2.03246 34.6703L17.1006 12.1264C17.39 11.6941 17.7287 11.2933 18.1112 10.9298C19.8562 9.27491 22.305 8.58649 24.7112 9.03595L26.1737 12.1021C26.2056 12.1685 26.2525 12.2242 26.3043 12.274L26.3012 12.277L27.0568 12.9939L27.0587 12.9921C27.1112 13.0419 27.1706 13.0852 27.2412 13.1148L30.4737 14.5023C30.95 16.7876 30.2231 19.1101 28.4756 20.768ZM37.8731 15.4007C37.3512 16.0713 36.2437 16.2118 35.5018 15.7042C34.6181 15.0977 33.6568 14.5688 32.6431 14.1335L29.685 12.8634L31.9518 12.5391C33.8781 12.2622 35.8943 12.663 37.4793 13.636C37.8175 13.8436 38.0393 14.1454 38.1056 14.4875C38.1662 14.8042 38.0837 15.1285 37.8731 15.4007Z" fill="black"/>
<path d="M21.3794 17.6657C20.0869 16.4395 19.375 14.8089 19.375 13.0745V13.0449L18.125 13.0745C18.125 15.1255 18.9669 17.0538 20.4956 18.5041C22.0244 19.9545 24.0569 20.7532 26.25 20.7532L26.2188 19.5673C24.3906 19.5673 22.6719 18.8919 21.3794 17.6657Z" fill="black"/>
<path d="M17.8344 20.825C16.8125 19.8555 16.25 18.5664 16.25 17.1955H15C15 18.8836 15.6925 20.4698 16.9506 21.6634L17.1656 21.8674C18.4238 23.061 20.0956 23.7179 21.875 23.7179V22.5321C20.43 22.5321 19.0712 21.9984 18.0494 21.0289L17.8344 20.825Z" fill="black"/>
<path d="M14.5044 24.1882C13.615 23.3438 13.125 22.2225 13.125 21.0289V20.7532H11.875V21.0289C11.875 22.5392 12.495 23.9587 13.6206 25.0266C14.7462 26.0945 16.2425 26.6827 17.8344 26.6827H18.125V25.4968H17.8344C16.5763 25.4968 15.3944 25.0319 14.5044 24.1882Z" fill="black"/>
<path d="M10.4419 28.0423C10.1569 27.7719 10 27.412 10 27.0302V26.0898H8.75V27.0302C8.75 27.7293 9.03688 28.3862 9.55813 28.8808C10.0794 29.3753 10.7719 29.6474 11.5087 29.6474H12.5V28.4615H11.5087C11.1062 28.4615 10.7269 28.3127 10.4419 28.0423Z" fill="black"/>
</g>
<defs>
<clipPath id="clip0">
<rect width="40" height="37.9487" fill="white"/>
</clipPath>
</defs>
</svg>
