<svg width="1190" height="326" viewBox="0 0 1190 326" fill="none" xmlns="http://www.w3.org/2000/svg">
<path d="M29 270.426C29 278.394 22.5088 284.852 14.5 284.852C6.49117 284.852 0 278.394 0 270.426C0 262.458 6.49117 256 14.5 256C22.5088 256 29 262.458 29 270.426Z" fill="#FFE4AF"/>
<path d="M433 223.949C433 229.444 428.523 233.898 423 233.898C417.477 233.898 413 229.444 413 223.949C413 218.454 417.477 214 423 214C428.523 214 433 218.454 433 223.949Z" fill="#FFE4AF"/>
<path d="M521 306.456C521 311.126 517.195 314.912 512.501 314.912C507.805 314.912 504 311.126 504 306.456C504 301.785 507.805 298 512.501 298C517.195 298 521 301.785 521 306.456Z" fill="#FFC672"/>
<path d="M118 265.456C118 270.126 114.195 273.912 109.501 273.912C104.805 273.912 101 270.126 101 265.456C101 260.785 104.805 257 109.501 257C114.195 257 118 260.785 118 265.456Z" fill="#FFC672"/>
<path d="M560.509 177.73C560.509 180.343 558.381 182.461 555.754 182.461C553.128 182.461 551 180.343 551 177.73C551 175.118 553.128 173 555.754 173C558.381 173 560.509 175.118 560.509 177.73Z" fill="#FFC672"/>
<path d="M666.514 126.722C666.514 130.435 663.489 133.444 659.757 133.444C656.025 133.444 653 130.435 653 126.722C653 123.009 656.025 120 659.757 120C663.489 120 666.514 123.009 666.514 126.722Z" fill="#FFE4AF"/>
<path d="M78.5135 184.722C78.5135 188.435 75.4887 191.444 71.7567 191.444C68.0248 191.444 65 188.435 65 184.722C65 181.009 68.0248 178 71.7567 178C75.4887 178 78.5135 181.009 78.5135 184.722Z" fill="#FFE4AF"/>
<path d="M785.514 6.72218C785.514 10.4351 782.489 13.4444 778.757 13.4444C775.025 13.4444 772 10.4351 772 6.72218C772 3.00929 775.025 -6.67572e-06 778.757 -6.67572e-06C782.489 -6.67572e-06 785.514 3.00929 785.514 6.72218Z" fill="#FFE4AF"/>
<path d="M360.314 321.509C337.291 335.74 312.886 312.922 306.595 297.913C302.383 289.825 294.459 269.885 302.383 249.429C312.287 223.858 338.823 283.153 378.627 278.335C418.431 273.517 389.092 303.721 360.314 321.509Z" fill="#FFE4AF"/>
<path d="M1185.95 53.6759C1178.79 36.1519 1161.95 46.3742 1154.42 53.6759C1140.8 67.2854 1161.82 81.0246 1174.92 83.6169C1188.03 86.2092 1194.9 75.5808 1185.95 53.6759Z" fill="#FFE4AF"/>
</svg>
