<svg width="25" height="25" viewBox="0 0 25 25" fill="none" xmlns="http://www.w3.org/2000/svg">
<path d="M9.25937 6.29665C6.31362 9.34445 6.95644 14.4024 10.3308 16.643C10.4419 16.7168 10.5899 16.7022 10.6854 16.6089C11.3957 15.9148 11.9967 15.2425 12.5229 14.3874C12.6034 14.2566 12.5533 14.0868 12.4183 14.0136C11.9036 13.7348 11.3914 13.212 11.1031 12.6597L11.1028 12.6599C10.7574 11.9721 10.6398 11.2012 10.8227 10.4051C10.8229 10.4051 10.8231 10.4052 10.8233 10.4052C11.0337 9.38587 12.1279 8.43769 12.9637 7.56079C12.962 7.5602 12.9602 7.55957 12.9585 7.55898L16.0899 4.36292C17.3378 3.08925 19.3905 3.07875 20.6514 4.33962C21.925 5.58749 21.9461 7.65053 20.6982 8.92414L18.8014 10.8746C18.7137 10.9649 18.6852 11.0966 18.7263 11.2156C19.163 12.4821 19.2704 14.2678 18.9777 15.6169C18.9695 15.6547 19.0161 15.6794 19.0431 15.6518L23.08 11.5316C25.6588 8.89957 25.637 4.61425 23.0314 2.00869C20.3723 -0.650362 16.0435 -0.628233 13.4118 2.05779L9.27554 6.27935C9.27007 6.28512 9.26489 6.29098 9.25937 6.29665V6.29665Z" fill="black" fill-opacity="0.8"/>
<path d="M16.8062 17.2234C16.8062 17.2235 16.8061 17.2237 16.806 17.2238C16.8086 17.2227 16.811 17.2217 16.8136 17.2206C17.6375 15.7141 17.7996 13.9863 17.4135 12.302L17.4118 12.3038L17.4099 12.303C17.0432 10.8029 16.0373 9.31323 14.671 8.39607C14.5535 8.31718 14.3658 8.32631 14.2557 8.41532C13.5637 8.9749 12.8863 9.69245 12.4393 10.6081C12.3691 10.7519 12.4217 10.9246 12.56 11.0049C13.0787 11.3061 13.5472 11.747 13.8609 12.3324L13.8614 12.332C14.1058 12.7455 14.3467 13.5302 14.1907 14.3732C14.1906 14.3732 14.1904 14.3732 14.1903 14.3732C14.0447 15.4909 12.916 16.5162 12.0187 17.4401L12.0192 17.4405C11.3362 18.139 9.59988 19.909 8.90465 20.6193C7.65677 21.8929 5.59374 21.9139 4.32013 20.6661C3.04651 19.4182 3.02546 17.3552 4.27333 16.0815L6.17569 14.1252C6.26191 14.0365 6.29122 13.9077 6.25288 13.7901C5.83047 12.494 5.71474 10.7486 5.98137 9.40097C5.98879 9.3634 5.94258 9.33941 5.91576 9.36677L1.93962 13.425C-0.665649 16.084 -0.643569 20.4133 1.98876 23.0456C4.64767 25.6508 8.95462 25.6067 11.5598 22.9478C12.4648 21.9355 16.339 18.3485 16.8062 17.2234V17.2234Z" fill="black" fill-opacity="0.8"/>
</svg>
