<svg width="40" height="40" viewBox="0 0 40 40" fill="none" xmlns="http://www.w3.org/2000/svg">
<g clip-path="url(#clip0)">
<path d="M28.2576 13.246L24.3949 5.59277V3.82979H24.6077C24.9602 3.82979 25.246 3.54409 25.246 3.19149V0.638298C25.246 0.285702 24.9602 0 24.6077 0H15.3924C15.0399 0 14.7541 0.285702 14.7541 0.638298V3.19149C14.7541 3.54409 15.0399 3.82979 15.3924 3.82979H15.6051V5.59277L11.7425 13.246C11.2741 14.1741 10.9071 15.7156 10.9071 16.7552V37.6596C10.9071 38.95 11.957 40 13.2475 40H26.7525C28.043 40 29.0929 38.95 29.0929 37.6596V16.7552C29.0929 15.7155 28.726 14.1741 28.2576 13.246ZM16.0307 1.2766H23.9693V2.55319H16.0307V1.2766ZM16.8133 6.03226C16.8583 5.94306 16.8817 5.8446 16.8817 5.74468V3.82979H23.1182V5.74468C23.1182 5.8446 23.1417 5.94306 23.1867 6.03226L25.6159 10.8453C25.1554 10.9946 24.8325 11.2353 24.5531 11.4442C24.1742 11.7275 23.9005 11.9321 23.2901 11.9321C22.6797 11.9321 22.4059 11.7275 22.027 11.4442C21.5848 11.1136 21.0344 10.7021 19.9995 10.7021C18.9647 10.7021 18.4144 11.1136 17.9722 11.4443C17.5934 11.7275 17.3197 11.9321 16.7094 11.9321C16.0991 11.9321 15.8254 11.7275 15.4466 11.4443C15.1673 11.2354 14.8445 10.9946 14.384 10.8454L16.8133 6.03226ZM27.8163 37.6596C27.8163 38.2462 27.3391 38.7234 26.7525 38.7234H13.2476C12.661 38.7234 12.1838 38.2462 12.1838 37.6596V16.7552C12.1838 15.9149 12.5036 14.5713 12.8823 13.8211L13.796 12.0108C14.1623 12.0786 14.3916 12.2493 14.6823 12.4666C15.1245 12.7972 15.6748 13.2087 16.7096 13.2087C17.7443 13.2087 18.2947 12.7972 18.7368 12.4666C19.1156 12.1833 19.3893 11.9787 19.9996 11.9787C20.61 11.9787 20.8838 12.1833 21.2627 12.4666C21.7049 12.7973 22.2553 13.2087 23.2901 13.2087C24.325 13.2087 24.8753 12.7972 25.3176 12.4666C25.6083 12.2493 25.8377 12.0786 26.2041 12.0108L27.1178 13.8212C27.4964 14.5712 27.8163 15.9149 27.8163 16.7552V37.6596Z" fill="black"/>
<path d="M14.0986 33.617C13.7461 33.617 13.4603 33.9027 13.4603 34.2553V36.8085C13.4603 37.1611 13.7461 37.4468 14.0986 37.4468C14.4511 37.4468 14.7369 37.1611 14.7369 36.8085V34.2553C14.7369 33.9027 14.4511 33.617 14.0986 33.617Z" fill="black"/>
<path d="M14.8793 14.1142C14.5646 13.9554 14.1808 14.0817 14.0219 14.3964C13.7385 14.9579 13.4603 16.1262 13.4603 16.7552V31.7021C13.4603 32.0547 13.7461 32.3404 14.0986 32.3404C14.4511 32.3404 14.7369 32.0547 14.7369 31.7021V16.7552C14.7369 16.3237 14.967 15.3569 15.1615 14.9717C15.3203 14.6569 15.1939 14.273 14.8793 14.1142Z" fill="black"/>
<path d="M18.7966 6.38298H21.2033C21.5558 6.38298 21.8416 6.09728 21.8416 5.74468C21.8416 5.39209 21.5558 5.10638 21.2033 5.10638H18.7966C18.4441 5.10638 18.1583 5.39209 18.1583 5.74468C18.1583 6.09728 18.4441 6.38298 18.7966 6.38298Z" fill="black"/>
</g>
<defs>
<clipPath id="clip0">
<rect width="40" height="40" fill="white"/>
</clipPath>
</defs>
</svg>
