<svg width="40" height="35" viewBox="0 0 40 35" fill="none" xmlns="http://www.w3.org/2000/svg">
<path d="M27.9569 0H12.0899C9.19205 0 6.86426 2.03682 6.86426 4.57245V12.4703H33.135V4.57245C33.1825 2.03682 30.8072 0 27.9569 0ZM14.6552 9.06176C14.6552 9.76841 14.0377 10.3088 13.2301 10.3088C12.4225 10.3088 11.8049 9.76841 11.8049 9.06176V5.65321C11.8049 4.94656 12.4225 4.40618 13.2301 4.40618C14.0377 4.40618 14.6552 4.94656 14.6552 5.65321V9.06176Z" fill="#333333"/>
<path fill-rule="evenodd" clip-rule="evenodd" d="M6.86426 30.4275V14.5071H33.135V19.9621C32.9544 19.8475 32.7298 19.7036 32.4638 19.529C31.5943 19.0218 31.1112 20.1208 31.0146 20.7972C28.9276 21.203 29.5653 22.488 30.145 23.0798C28.7537 24.2972 29.9517 26.4614 30.7247 27.3914C30.0698 29.1103 32.0177 29.1662 33.135 28.9553V30.4275C33.135 32.9632 30.8073 35 27.9094 35H12.0899C9.19205 35 6.86426 32.9632 6.86426 30.4275ZM13.2301 22.5712C14.0377 22.5712 14.6552 22.0309 14.6552 21.3242V17.9157C14.6552 17.209 14.0377 16.6686 13.2301 16.6686C12.4225 16.6686 11.8049 17.209 11.8049 17.9157V21.3242C11.8049 22.0309 12.4225 22.5712 13.2301 22.5712Z" fill="black"/>
</svg>
