<svg width="35" height="35" viewBox="0 0 35 35" fill="none" xmlns="http://www.w3.org/2000/svg">
<path d="M28.4444 22.603C27.3715 21.6096 26.84 20.5708 26.9074 19.5989C26.9639 18.7859 27.4313 18.0516 28.2591 17.4751C30.1826 16.1355 30.0871 14.3503 29.4208 13.2285C28.6247 11.8882 27.0831 11.3482 25.8347 11.9723C25.5459 12.1167 25.3095 12.3483 25.0592 12.5934C24.6951 12.95 24.3186 13.3188 23.7372 13.4774C23.3555 13.5815 22.9076 13.5102 22.5682 13.2912C22.316 13.1285 22.156 12.9077 22.118 12.6695C21.9646 11.7113 22.683 10.8171 23.4436 9.87036C24.2293 8.89227 25.0418 7.88103 24.8582 6.70107C24.5589 4.77819 22.8629 3.77754 21.4182 3.81315C19.968 3.84849 18.9298 4.82604 18.7731 6.30343C18.5873 8.05466 18.0884 9.23619 17.3681 9.63042C16.9057 9.88342 16.3082 9.83024 15.5921 9.47217C14.5688 8.9605 13.61 8.85953 12.8193 9.18014C12.1584 9.44811 11.6682 9.99252 11.4014 10.7545C10.9134 12.1491 11.7909 13.132 12.3716 13.7825C12.4985 13.9246 12.6183 14.0589 12.7105 14.1799C13.2121 14.8381 12.9115 15.6988 12.3312 16.1504C11.431 16.8513 10.4678 16.2927 9.86648 15.5365C8.26413 13.5213 6.43476 12.5646 4.97357 12.9772C3.97648 13.2587 3.31441 14.1605 3.15698 15.451C2.91629 17.425 4.57524 18.2187 6.03882 18.9189C6.98498 19.3715 7.96321 19.8395 8.32852 20.571C8.59738 21.1094 8.25832 21.6213 7.5847 22.554C6.73909 23.7247 5.58108 25.3281 6.13418 27.7509C6.65857 30.0475 8.26044 31.5273 10.5294 31.8106C10.7837 31.8423 11.0382 31.8578 11.2909 31.8578C13.3281 31.8578 15.2499 30.8544 16.0407 29.3088C17.0606 27.3153 18.1528 26.2275 19.2871 26.0757C20.8424 25.8676 22.3172 27.4854 23.1095 28.3546C23.1918 28.4448 23.2679 28.5284 23.3376 28.6031C24.3152 29.6504 25.8754 30.056 27.4106 29.6614C28.8814 29.2832 29.992 28.2695 30.309 27.0159C30.7638 25.2168 29.5461 23.6231 28.4444 22.603ZM29.3149 26.7646C29.0899 27.6543 28.2623 28.3838 27.1551 28.6684C26.2372 28.9044 24.9493 28.8273 24.0872 27.9036C24.0199 27.8315 23.9465 27.751 23.8672 27.664C22.9486 26.656 21.2397 24.7799 19.1509 25.0595C17.6634 25.2586 16.3099 26.5312 15.1277 28.8419C14.4396 30.1868 12.5175 31.0257 10.6563 30.7932C8.84047 30.5665 7.55654 29.3745 7.1338 27.5228C6.68393 25.5525 7.60405 24.2785 8.41589 23.1544C9.09853 22.2091 9.80448 21.2318 9.24584 20.113C8.72323 19.0665 7.58354 18.5212 6.48131 17.994C4.95723 17.2649 4.03055 16.758 4.17479 15.5753C4.23645 15.0697 4.45841 14.1882 5.25227 13.9641C5.38188 13.9274 5.51928 13.9096 5.66305 13.9096C6.64872 13.9096 7.93231 14.7517 9.06394 16.1748C10.3595 17.804 11.9548 17.743 12.9611 16.9597C13.4543 16.5758 13.81 16.0151 13.9372 15.4212C14.0798 14.7551 13.9339 14.0937 13.5262 13.5586C13.4098 13.4059 13.2771 13.2572 13.1366 13.0999C12.4989 12.3855 12.101 11.86 12.3693 11.0935C12.5382 10.6108 12.8193 10.2868 13.2047 10.1305C13.7072 9.92669 14.3923 10.0187 15.1336 10.3894C16.1683 10.9068 17.0857 10.9541 17.8605 10.53C18.914 9.95342 19.5641 8.56791 19.7928 6.41171C19.8949 5.4492 20.5119 4.86097 21.4433 4.83827C22.4531 4.81284 23.6357 5.5136 23.8451 6.85878C23.9592 7.5916 23.3205 8.38662 22.6444 9.22819C21.8175 10.2574 20.8804 11.4239 21.1056 12.8315C21.1903 13.3609 21.5124 13.8302 22.0126 14.1529C22.5978 14.5304 23.3434 14.6477 24.0072 14.4667C24.8459 14.2379 25.3621 13.7322 25.7769 13.3259C25.968 13.1387 26.1486 12.9619 26.2935 12.8894C26.9414 12.5654 27.9488 12.7577 28.5393 13.7522C29.0022 14.5313 29.0176 15.6973 27.6731 16.6337C26.5974 17.3828 25.9622 18.4107 25.8846 19.5279C25.8221 20.4291 26.0946 21.8246 27.7479 23.3555C29.0354 24.5477 29.5773 25.7266 29.3149 26.7646Z" fill="black"/>
<path d="M7.18131 4.84433C7.0718 4.09976 6.78872 3.29107 6.38417 2.56714C5.44368 0.884135 4.06925 -0.049312 2.61347 0.00229938C1.58363 0.0397603 0.681085 0.654721 0.257872 1.60717C-0.263436 2.78049 0.0164271 4.18521 1.00648 5.36489C2.18554 6.76981 3.83225 7.68446 5.15753 7.68446C5.20894 7.68446 5.25993 7.68309 5.31038 7.68029C5.99979 7.64228 6.54755 7.34704 6.89447 6.82662C7.2861 6.23921 7.26662 5.42443 7.18131 4.84433ZM6.04135 6.2578C5.87592 6.50594 5.61834 6.63637 5.25385 6.65647C4.24281 6.71246 2.78731 5.89187 1.79186 4.7057C1.05959 3.83316 0.836398 2.83046 1.19494 2.02348C1.46182 1.42288 2.00603 1.05032 2.65079 1.02687C2.67827 1.02584 2.70534 1.02537 2.73255 1.02537C4.1886 1.02537 5.14263 2.4471 5.48914 3.06712C6.07908 4.123 6.4418 5.65706 6.04135 6.2578Z" fill="black"/>
<path d="M15.2361 3.59263C15.1539 3.11097 14.5617 1.75944 13.5841 1.27265C13.1026 1.03298 12.5964 1.03647 12.1204 1.2829C11.3705 1.67125 10.9377 2.36804 10.9626 3.14672C10.9908 4.0328 11.5883 4.81681 12.5609 5.24413C13.0314 5.45084 13.4218 5.52891 13.7432 5.52891C14.1847 5.52891 14.4961 5.3816 14.7056 5.21801C15.152 4.86938 15.3503 4.26173 15.2361 3.59263ZM14.0745 4.40987C13.8799 4.5619 13.4681 4.5228 12.9734 4.30541C12.3714 4.04086 12.0028 3.59543 11.9874 3.11398C11.9753 2.73411 12.1956 2.3986 12.592 2.19331C12.7753 2.09829 12.9404 2.09741 13.1271 2.19044C13.7122 2.48172 14.1777 3.48551 14.2254 3.76503C14.2743 4.05187 14.2166 4.29892 14.0745 4.40987Z" fill="black"/>
<path d="M31.8386 5.31708C31.7639 4.86844 31.5239 4.52315 31.1443 4.31862C30.7773 4.12086 30.2913 4.06774 29.6998 4.16092C28.8838 4.2893 28.1956 4.94493 27.8117 5.95952C27.4794 6.83807 27.3925 8.02466 27.9477 8.6956C28.1909 8.98948 28.5258 9.14404 28.9087 9.14404C28.9952 9.14404 29.0841 9.13611 29.175 9.12018C29.848 9.00212 30.56 8.46168 31.1284 7.63726C31.6814 6.83548 31.9469 5.96806 31.8386 5.31708ZM28.9978 8.11031C28.8202 8.14155 28.7685 8.07914 28.7375 8.04195C28.5338 7.79558 28.4885 7.06817 28.7707 6.32244C29.0169 5.67166 29.4238 5.24229 29.8592 5.1738C30.7516 5.03352 30.8066 5.36172 30.8271 5.48531C30.9697 6.34322 29.8415 7.96238 28.9978 8.11031Z" fill="black"/>
<path d="M34.5675 31.5645C33.944 30.7446 32.7832 30.2681 31.8082 30.4311C31.0601 30.5561 30.5147 31.0293 30.2724 31.7633C29.8539 33.0308 30.8037 34.3703 31.9534 34.8262C32.2487 34.9433 32.5409 35 32.822 35C33.6573 35 34.3939 34.4983 34.8185 33.5871C35.1292 32.9202 35.0378 32.1831 34.5675 31.5645ZM33.8891 33.1541C33.6927 33.5754 33.2293 34.2292 32.3314 33.8731C31.4834 33.5368 31.059 32.6516 31.2461 32.0849C31.3684 31.7145 31.6075 31.5044 31.9773 31.4426C32.0506 31.4303 32.1266 31.4244 32.2042 31.4244C32.7631 31.4244 33.406 31.7313 33.7513 32.1854C33.9937 32.5041 34.0401 32.83 33.8891 33.1541Z" fill="black"/>
</svg>
