<svg width="37" height="37" viewBox="0 0 37 37" fill="none" xmlns="http://www.w3.org/2000/svg">
<path d="M32.012 4.98778C31.7518 4.71375 28.5285 1.39069 24.3726 1.3138C22.1283 1.26928 20.0367 2.1937 18.1737 4.05209C14.6301 7.58616 14.4384 10.9696 14.2693 13.9548C14.1372 16.2907 14.023 18.3078 12.3401 20.0482C12.2527 20.1389 12.2022 20.2588 12.1985 20.3847C12.1941 20.7685 12.2777 21.1482 12.4427 21.4947L8.51956 25.4176C7.67289 26.2639 6.76466 26.2079 5.39161 26.122C4.99271 26.0971 4.5805 26.0717 4.12436 26.0642C3.57709 26.0383 3.03485 26.1792 2.56942 26.4683C2.10398 26.7573 1.7373 27.1809 1.51789 27.6829C1.30946 28.2008 1.26323 28.7697 1.38531 29.3144C1.50739 29.859 1.79202 30.3538 2.20152 30.7331C2.57567 31.1313 3.03568 31.439 3.54659 31.6327C4.05749 31.8265 4.60584 31.9012 5.14996 31.8512C5.09997 32.3953 5.17469 32.9437 5.36843 33.4546C5.56217 33.9655 5.86984 34.4255 6.26805 34.7997C6.53232 35.0752 6.84854 35.2957 7.19845 35.4485C7.54837 35.6012 7.92506 35.6832 8.30681 35.6897C8.65446 35.6896 8.99854 35.6195 9.31853 35.4836C9.82081 35.2644 10.2446 34.8977 10.5337 34.4322C10.8228 33.9666 10.9636 33.4242 10.9373 32.8768C10.9306 32.421 10.9049 32.0096 10.8795 31.6099C10.7927 30.2359 10.7375 29.3283 11.5836 28.4816L15.505 24.5576C15.8344 24.7142 16.1937 24.7978 16.5584 24.8027H16.6162C16.7422 24.799 16.8623 24.7484 16.953 24.6608C18.6931 22.9779 20.7108 22.8637 23.0461 22.7313C26.0313 22.5625 29.4147 22.3708 32.9485 18.8272C34.8072 16.9639 35.7284 14.8781 35.6868 12.6283C35.6093 8.47127 32.2857 5.24678 32.012 4.98778ZM10.867 27.7659C9.69778 28.9349 9.77669 30.2033 9.86832 31.672C9.89232 32.0591 9.91718 32.4594 9.92354 32.8916C9.94436 33.2369 9.8599 33.5804 9.68132 33.8767C9.50274 34.173 9.23845 34.4082 8.92338 34.5511C8.59091 34.6815 8.2264 34.7066 7.87918 34.6231C7.53195 34.5395 7.21877 34.3513 6.98203 34.0839C6.61675 33.7506 6.35555 33.3188 6.22986 32.8405C6.10417 32.3622 6.11934 31.8577 6.27354 31.3879C6.31177 31.2954 6.32174 31.1938 6.3022 31.0957C6.28267 30.9976 6.2345 30.9075 6.16379 30.8368C6.09307 30.7661 6.00299 30.7179 5.90491 30.6984C5.80683 30.6789 5.70516 30.6888 5.61275 30.7271C5.14286 30.8808 4.6386 30.8957 4.16044 30.7701C3.68229 30.6444 3.25053 30.3835 2.91695 30.0186C2.64946 29.7818 2.46119 29.4686 2.37763 29.1213C2.29408 28.774 2.31928 28.4094 2.44982 28.0769C2.59071 27.7604 2.82539 27.4948 3.12213 27.316C3.41888 27.1371 3.76337 27.0538 4.10904 27.0771C4.54264 27.0834 4.94183 27.1083 5.32889 27.1323C6.79848 27.2239 8.06573 27.3025 9.2347 26.1336L13.0703 22.2974C13.3986 22.557 13.787 22.73 14.1996 22.8004C14.2699 23.2132 14.4426 23.6017 14.702 23.9303L10.867 27.7659ZM32.2314 18.1112C28.9707 21.3811 25.9298 21.5534 22.988 21.7199C20.622 21.8537 18.3832 21.98 16.4118 23.7786C16.0361 23.7312 15.2342 23.4918 15.157 22.3145C15.1488 22.192 15.0964 22.0766 15.0094 21.9899C14.9225 21.9032 14.8069 21.8511 14.6844 21.8433C13.5047 21.7658 13.2663 20.9596 13.2197 20.5885C15.018 18.6171 15.1449 16.3783 15.2784 14.012C15.4455 11.0708 15.6175 8.02843 18.8871 4.76867C20.5472 3.11292 22.3775 2.28765 24.3472 2.32523C28.157 2.39229 31.2526 5.65783 31.2847 5.69107C31.2925 5.69945 31.3009 5.70813 31.3095 5.71593C31.3425 5.74657 34.6049 8.82798 34.6748 12.6459C34.7106 14.611 33.8886 16.4503 32.2305 18.1118L32.2314 18.1112Z" fill="black"/>
<path d="M19.9742 6.84182C17.557 9.39308 17.5293 12.9089 17.5293 13.0567C17.5293 13.1907 17.5825 13.3192 17.6773 13.4141C17.772 13.5089 17.9005 13.5622 18.0346 13.5622C18.1685 13.5622 18.297 13.5091 18.3919 13.4145C18.4867 13.3199 18.5401 13.1915 18.5404 13.0575C18.5404 13.0252 18.5745 9.7891 20.7084 7.53644C20.7937 7.43792 20.8376 7.31031 20.8311 7.18019C20.8247 7.05006 20.7682 6.92746 20.6736 6.83792C20.5789 6.74838 20.4534 6.69881 20.3231 6.69954C20.1928 6.70027 20.0678 6.75123 19.9742 6.84182Z" fill="black"/>
<path d="M24.5669 4.48828C24.1177 4.38692 23.6515 4.38726 23.2024 4.48929C22.7533 4.59132 22.3327 4.79245 21.9714 5.07797C21.8756 5.16729 21.8181 5.29031 21.8111 5.42113C21.8042 5.55195 21.8482 5.68038 21.934 5.77938C22.0199 5.87837 22.1407 5.94021 22.2712 5.95189C22.4017 5.96356 22.5316 5.92415 22.6336 5.84196C22.8746 5.65892 23.1529 5.53122 23.4487 5.46792C23.7446 5.40462 24.0508 5.40728 24.3455 5.47572C24.4764 5.50497 24.6136 5.481 24.7269 5.40909C24.8402 5.33718 24.9202 5.22322 24.9495 5.09228C24.9787 4.96134 24.9548 4.82414 24.8828 4.71087C24.8109 4.5976 24.697 4.51753 24.566 4.48828H24.5669Z" fill="black"/>
</svg>
