<svg width="40" height="40" viewBox="0 0 40 40" fill="none" xmlns="http://www.w3.org/2000/svg">
<path d="M26.0669 11.4331C24.9756 10.3419 24.375 8.89125 24.375 7.34812V5.51C25.1006 5.25125 25.625 4.56375 25.625 3.75V2.5C25.625 1.46625 24.7837 0.625 23.75 0.625H16.25C15.2162 0.625 14.375 1.46625 14.375 2.5V3.75C14.375 4.56375 14.8994 5.25125 15.625 5.51V7.34875C15.625 8.89188 15.0244 10.3425 13.9331 11.4338C12.6062 12.7606 11.875 14.525 11.875 16.4019V36.25C11.875 37.9731 13.2769 39.375 15 39.375H25C26.7231 39.375 28.125 37.9731 28.125 36.25V16.4019C28.125 14.525 27.3938 12.7606 26.0669 11.4331ZM15.625 2.5C15.625 2.15562 15.905 1.875 16.25 1.875H23.75C24.095 1.875 24.375 2.15562 24.375 2.5V3.75C24.375 4.09437 24.095 4.375 23.75 4.375H16.25C15.905 4.375 15.625 4.09437 15.625 3.75V2.5ZM14.8169 12.3169C16.1438 10.9894 16.875 9.225 16.875 7.34812V5.625H23.125V7.34812C23.125 9.225 23.8562 10.9894 25.1831 12.3169C26.2744 13.4081 26.875 14.8588 26.875 16.4019V17.5H13.125V16.4019C13.125 14.8588 13.7256 13.4081 14.8169 12.3169ZM26.875 18.75V33.75H13.125V18.75H26.875ZM25 38.125H15C13.9662 38.125 13.125 37.2837 13.125 36.25V35H26.875V36.25C26.875 37.2837 26.0337 38.125 25 38.125Z" fill="black"/>
<path d="M14.7413 23.75C15.0988 23.75 15.4338 23.88 15.705 24.1075C15.56 24.6162 15.59 25.1644 15.8138 25.6475C16.0687 26.1969 16.545 26.6225 17.1187 26.8144C17.7369 27.0212 18.3356 27.2825 18.9213 27.5688C18.2075 28.6263 17.3594 29.5937 16.39 30.44L14.5894 32.0119C14.3588 32.2131 14.3075 32.5525 14.4694 32.8125C14.5869 33.0006 14.79 33.1075 15.0006 33.1075C15.0812 33.1075 15.1625 33.0919 15.2406 33.0594L18.5644 31.6775C19.8206 31.1556 20.9512 30.4225 21.9369 29.5331C22.515 30.0194 23.0669 30.54 23.565 31.11L25.1375 32.9106C25.2588 33.0513 25.4319 33.125 25.6075 33.125C25.7213 33.125 25.835 33.0944 25.9369 33.0312C26.1975 32.8694 26.3019 32.5431 26.1844 32.2606L24.8025 28.9369C24.5556 28.3425 24.2475 27.7737 23.9062 27.2275C24.2444 26.7081 24.5525 26.1669 24.8088 25.5919C25.055 25.0381 25.065 24.4238 24.8369 23.8625C24.7444 23.6344 24.6094 23.435 24.4537 23.2544C25.2119 22.34 25.625 21.2019 25.625 20H24.375C24.375 20.9619 24.0212 21.8669 23.3825 22.5769C22.8775 22.4356 22.3337 22.4662 21.8538 22.6887C21.3506 22.9225 20.9606 23.345 20.7494 23.8544C20.1119 23.4006 19.4319 23.01 18.7169 22.6912C18.1638 22.445 17.55 22.4344 16.9875 22.6625C16.7581 22.7556 16.5575 22.8912 16.3762 23.0481C15.9037 22.6981 15.34 22.5 14.7413 22.5H13.75V23.75H14.7413ZM23.6231 29.355C23.3675 29.1062 23.1012 28.8687 22.8306 28.6375C22.9244 28.5319 23.02 28.4288 23.11 28.32C23.2981 28.6562 23.4731 29 23.6231 29.355ZM21.8713 24.39C21.9562 24.1369 22.1362 23.935 22.3787 23.8225C22.6237 23.7094 22.8956 23.7031 23.1444 23.8019C23.39 23.9 23.5794 24.0881 23.6781 24.3325C23.7775 24.5762 23.7731 24.8425 23.6663 25.0825C22.575 27.5319 20.6156 29.4525 18.1444 30.4975C19.8281 28.7719 21.1062 26.6825 21.8713 24.39ZM16.9269 24.3556C17.025 24.11 17.2138 23.92 17.4581 23.8206C17.7006 23.7225 17.9675 23.7256 18.2075 23.8331C18.9437 24.1606 19.6356 24.5769 20.2775 25.0625C20.0694 25.5537 19.835 26.0325 19.5756 26.4975C18.9075 26.165 18.2219 25.8644 17.515 25.6281C17.2625 25.5438 17.0606 25.3638 16.9481 25.1206C16.835 24.8775 16.8275 24.6056 16.9269 24.3556Z" fill="black"/>
<path d="M24.235 16.3869L25.4543 16.1131C25.1625 14.8125 24.5093 13.6263 23.5662 12.6831C22.5112 11.6281 21.9118 10.2263 21.8762 8.73501L20.6262 8.76501C20.6693 10.5781 21.3993 12.2838 22.6825 13.5669C23.4581 14.3425 23.9956 15.3175 24.235 16.3869Z" fill="black"/>
</svg>
