<svg width="35" height="35" viewBox="0 0 35 35" fill="none" xmlns="http://www.w3.org/2000/svg">
<g clip-path="url(#clip0)">
<path d="M34.3503 3.79146C35.2164 2.9253 35.2164 1.51583 34.3503 0.649604C33.4839 -0.216555 32.0746 -0.216555 31.2083 0.649604L30.3594 1.49854C28.7525 0.0189369 26.2418 0.0576273 24.683 1.61639C23.8786 2.42082 23.4792 3.47906 23.4841 4.53574C23.253 4.44749 23.005 4.40087 22.7496 4.40087C22.2008 4.40087 21.6858 4.61359 21.2995 4.99988C20.9133 5.38617 20.7005 5.90118 20.7005 6.44995C20.7005 6.75879 20.7678 7.05683 20.8955 7.32726C18.7052 9.41374 16.7768 10.4185 15.2097 11.2346C12.9096 12.4325 11.1899 13.3286 10.8965 16.6078C10.7891 16.5907 10.6797 16.5816 10.5688 16.5816C10.0199 16.5816 9.50493 16.7944 9.11878 17.1807C8.75915 17.5403 8.55011 18.0115 8.52297 18.5177C8.03593 18.5443 7.55653 18.7428 7.18528 19.114L3.80165 22.4977C3.54401 22.7554 3.4021 23.0987 3.4021 23.4644C3.4021 23.8301 3.54401 24.1734 3.80172 24.4311L10.5688 31.1981C10.8265 31.4559 11.1698 31.5978 11.5356 31.5978C11.9013 31.5978 12.2446 31.4559 12.5023 31.1981L15.8859 27.8146C16.2572 27.4434 16.4557 26.964 16.4823 26.477C16.9885 26.4498 17.4598 26.2408 17.8193 25.8812C18.2056 25.495 18.4184 24.9799 18.4184 24.4312C18.4184 24.3202 18.4093 24.2108 18.3922 24.1034C21.6714 23.8101 22.5675 22.0904 23.7654 19.7902C24.5816 18.2231 25.5864 16.2945 27.6732 14.104C27.9499 14.2346 28.2499 14.3001 28.55 14.3001C29.0752 14.3001 29.6003 14.1003 30.0001 13.7006C30.3863 13.3143 30.5991 12.7993 30.5991 12.2505C30.5991 11.995 30.5525 11.7471 30.4643 11.5159C30.4707 11.5159 30.4771 11.5163 30.4835 11.5163C31.5339 11.5163 32.5841 11.1166 33.3838 10.317C34.1557 9.54498 34.5809 8.51504 34.5809 7.4168C34.5809 6.37613 34.1985 5.39711 33.5016 4.64046L34.3503 3.79146ZM33.3835 1.61632C33.7166 1.94949 33.7166 2.49171 33.3835 2.82481L32.5376 3.67067L31.3292 2.46224L32.175 1.61639C32.5082 1.28342 33.0503 1.28321 33.3835 1.61632ZM14.9191 26.8478L11.5356 30.2313L4.76857 23.4643L8.15214 20.0807C8.28536 19.9475 8.46043 19.8809 8.63549 19.8809C8.81056 19.8809 8.98562 19.9475 9.11885 20.0807L14.9192 25.8812C15.1857 26.1476 15.1857 26.5813 14.9191 26.8478ZM16.8526 24.9144C16.7245 25.0424 16.5529 25.113 16.3693 25.113C16.1857 25.113 16.0139 25.0424 15.8859 24.9144C15.8858 24.9142 15.8857 24.9142 15.8856 24.914L10.0856 19.114C9.95753 18.9859 9.88705 18.8143 9.88705 18.6307C9.88705 18.4471 9.95753 18.2754 10.0856 18.1474C10.2137 18.0193 10.3853 17.9488 10.5689 17.9488C10.7525 17.9488 10.9242 18.0193 11.0523 18.1474L16.8527 23.9477C16.9807 24.0758 17.0513 24.2475 17.0513 24.4311C17.0511 24.6146 16.9806 24.7863 16.8526 24.9144ZM29.0333 12.7337C28.7669 13.0001 28.3335 13.0001 28.0669 12.7341C28.0668 12.7339 28.0667 12.7338 28.0666 12.7337C28.0664 12.7335 28.0661 12.7333 28.0659 12.7331L27.3414 12.0086C27.0745 11.7417 26.6417 11.7417 26.3747 12.0085C26.1077 12.2755 26.1077 12.7082 26.3746 12.9752L26.6232 13.2238C24.446 15.5239 23.4022 17.5276 22.5528 19.1587C21.3329 21.5011 20.7028 22.7102 17.616 22.7777L12.2223 17.384C12.2898 14.2973 13.4989 13.6672 15.8413 12.4473C17.4724 11.5979 19.4761 10.5541 21.7762 8.37689L22.0246 8.62537C22.2916 8.89223 22.7243 8.89223 22.9914 8.62537C23.2584 8.35843 23.2584 7.92559 22.9914 7.65859L22.2663 6.93345C21.9998 6.66699 21.9998 6.23326 22.2663 5.96673C22.5327 5.70028 22.9664 5.70021 23.233 5.96673L29.0333 11.7672C29.1614 11.8952 29.2319 12.0668 29.2319 12.2505C29.2319 12.434 29.1613 12.6056 29.0333 12.7337ZM32.4168 9.35009C31.903 9.86394 31.2163 10.1468 30.4834 10.1468C29.7503 10.1468 29.0637 9.86387 28.55 9.35009C28.5498 9.34996 28.5496 9.34982 28.5494 9.34962L25.6499 6.45009C25.6498 6.45002 25.6498 6.44995 25.6498 6.44995C24.5837 5.38385 24.5837 3.64921 25.6498 2.58317C26.716 1.51699 28.4506 1.51706 29.5166 2.5831L32.4168 5.48338C32.9307 5.99715 33.2135 6.68374 33.2135 7.41674C33.2135 8.14973 32.9306 8.83639 32.4168 9.35009Z" fill="black"/>
<path d="M0.684058 33.6329H0.683511C0.305962 33.6329 0.00012207 33.939 0.00012207 34.3165C0.00012207 34.6939 0.30644 35.0001 0.683989 35.0001C1.06154 35.0001 1.36758 34.6939 1.36758 34.3165C1.36758 33.939 1.06161 33.6329 0.684058 33.6329Z" fill="black"/>
<path d="M4.78562 33.6329H4.78507C4.40752 33.6329 4.10168 33.939 4.10168 34.3165C4.10168 34.6939 4.408 35.0001 4.78555 35.0001C5.1631 35.0001 5.46915 34.6939 5.46915 34.3165C5.46915 33.939 5.16317 33.6329 4.78562 33.6329Z" fill="black"/>
<path d="M0.684058 29.5312H0.683511C0.305962 29.5312 0.00012207 29.8374 0.00012207 30.2148C0.00012207 30.5923 0.30644 30.8984 0.683989 30.8984C1.06154 30.8984 1.36758 30.5923 1.36758 30.2148C1.36758 29.8374 1.06161 29.5312 0.684058 29.5312Z" fill="black"/>
<path d="M4.78562 29.5312H4.78507C4.40752 29.5312 4.10168 29.8374 4.10168 30.2148C4.10168 30.5923 4.408 30.8984 4.78555 30.8984C5.1631 30.8984 5.46915 30.5923 5.46915 30.2148C5.46915 29.8374 5.16317 29.5312 4.78562 29.5312Z" fill="black"/>
<path d="M24.6831 9.63331H24.6826C24.3051 9.63331 23.9993 9.93942 23.9993 10.3169C23.9993 10.6944 24.3056 11.0005 24.6831 11.0005C25.0607 11.0005 25.3667 10.6944 25.3667 10.3169C25.3667 9.93942 25.0607 9.63331 24.6831 9.63331Z" fill="black"/>
</g>
<defs>
<clipPath id="clip0">
<rect width="35" height="35" fill="white"/>
</clipPath>
</defs>
</svg>
