<svg width="35" height="35" viewBox="0 0 35 35" fill="none" xmlns="http://www.w3.org/2000/svg">
<g clip-path="url(#clip0)">
<path d="M12.9482 10.4971L15.6827 1.9926C16.2432 0.24944 18.7085 0.246432 19.2732 1.9883L22.0318 10.4971H31.0134C32.8418 10.4971 33.6011 12.8375 32.1209 13.9109L24.8694 19.1686L27.6532 27.654C28.2238 29.3932 26.2322 30.8443 24.7516 29.7681L17.5277 24.5176L10.2783 29.7994C8.7995 30.8768 6.80683 29.4297 7.37366 27.6902L10.1527 19.162L2.88239 13.9131C1.39837 12.8417 2.15627 10.4971 3.98666 10.4971H12.9482Z" fill="#FFCD69"/>
<path d="M9.1673 30.8542C8.64161 30.8542 8.11593 30.6877 7.65703 30.3544C6.73815 29.6871 6.37167 28.5583 6.72359 27.4785L9.34811 19.4245L2.48209 14.4674C1.56095 13.8023 1.1916 12.6741 1.54106 11.5931C1.89051 10.512 2.85041 9.81354 3.98655 9.81354H12.4498L15.0318 1.78336C15.3797 0.701436 16.3389 0.00143555 17.4755 0H17.4788C18.6139 0 19.5732 0.697334 19.9234 1.77748L22.5288 9.81354H23.4463C23.8239 9.81354 24.1299 10.1196 24.1299 10.4971C24.1299 10.8746 23.8239 11.1807 23.4463 11.1807H22.0317C21.7354 11.1807 21.4728 10.9898 21.3814 10.7079L18.6228 2.19912C18.424 1.58566 17.9016 1.36719 17.4786 1.36719C17.4781 1.36719 17.4776 1.36719 17.4771 1.36719C17.0538 1.36773 16.531 1.58724 16.3334 2.20186L13.5988 10.7064C13.5079 10.989 13.245 11.1807 12.948 11.1807H3.98655C3.34117 11.1807 2.97209 11.611 2.84194 12.0136C2.71178 12.4163 2.75915 12.9811 3.28238 13.359L10.5527 18.608C10.7936 18.7819 10.8945 19.0915 10.8025 19.374L8.02344 27.9022C7.82356 28.5156 8.11805 28.9997 8.46039 29.2482C8.80267 29.4967 9.35426 29.6269 9.87557 29.2471L17.125 23.9652C17.3646 23.7906 17.6896 23.7903 17.9295 23.9647L25.1533 29.2152C25.6754 29.5946 26.2269 29.4636 26.5689 29.2144C26.9109 28.9652 27.2047 28.4804 27.0036 27.8672L24.2198 19.3817C24.1272 19.0994 24.2275 18.7896 24.468 18.6152L31.7195 13.3574C32.2414 12.979 32.288 12.4145 32.1576 12.0124C32.0272 11.6103 31.6581 11.1807 31.0134 11.1807H29.5988C29.2212 11.1807 28.9152 10.8745 28.9152 10.4971C28.9152 10.1196 29.2212 9.81347 29.5988 9.81347H31.0134C32.1483 9.81347 33.1079 10.511 33.458 11.5905C33.8083 12.6701 33.4408 13.7981 32.522 14.4642L25.6743 19.4293L28.3027 27.441C28.6568 28.5205 28.2923 29.6503 27.3741 30.3194C26.4559 30.9883 25.2687 30.9891 24.3496 30.321L17.5281 25.363L10.6807 30.3519C10.2212 30.6868 9.69428 30.8542 9.1673 30.8542V30.8542Z" fill="black" fill-opacity="0.8"/>
<path d="M17.5 35C17.1225 35 16.8164 34.6939 16.8164 34.3164V28.7877C16.8164 28.4102 17.1225 28.1041 17.5 28.1041C17.8776 28.1041 18.1836 28.4102 18.1836 28.7877V34.3164C18.1836 34.6939 17.8776 35 17.5 35Z" fill="black" fill-opacity="0.8"/>
<path d="M34.1751 22.8851C34.1051 22.8851 34.0339 22.8742 33.9637 22.8514L28.7057 21.143C28.3466 21.0263 28.1501 20.6406 28.2668 20.2816C28.3834 19.9226 28.7691 19.7263 29.1282 19.8427L34.3863 21.5511C34.7453 21.6678 34.9418 22.0535 34.8251 22.4125C34.7312 22.7014 34.4632 22.8851 34.1751 22.8851Z" fill="black" fill-opacity="0.8"/>
<path d="M24.5554 7.75515C24.4161 7.75515 24.2755 7.7127 24.1541 7.62452C23.8487 7.40262 23.781 6.9751 24.0029 6.66967L27.2526 2.19685C27.4745 1.89142 27.9019 1.82368 28.2074 2.04564C28.5129 2.26753 28.5805 2.69505 28.3586 3.00048L25.109 7.47331C24.9753 7.65747 24.7668 7.75515 24.5554 7.75515Z" fill="black" fill-opacity="0.8"/>
<path d="M10.4445 7.75517C10.2331 7.75517 10.0247 7.65742 9.89087 7.47333L6.6412 3.00057C6.41931 2.69514 6.48705 2.26763 6.79241 2.04573C7.09791 1.8237 7.52536 1.89151 7.74726 2.19694L10.9969 6.66976C11.2188 6.97519 11.1511 7.40271 10.8457 7.62461C10.7244 7.71272 10.5838 7.75517 10.4445 7.75517V7.75517Z" fill="black" fill-opacity="0.8"/>
<path d="M0.824889 22.8851C0.536686 22.8851 0.268785 22.7014 0.17486 22.4125C0.0582386 22.0535 0.254703 21.6678 0.613727 21.5511L5.87179 19.8427C6.23095 19.7261 6.6165 19.9225 6.73319 20.2816C6.84988 20.6406 6.65335 21.0263 6.29432 21.143L1.03632 22.8515C0.966119 22.8742 0.894889 22.8851 0.824889 22.8851V22.8851Z" fill="black" fill-opacity="0.8"/>
<path d="M26.5228 11.1808C26.343 11.1808 26.1667 11.1078 26.0395 10.9806C25.9124 10.8534 25.8392 10.677 25.8392 10.4973C25.8392 10.3175 25.9124 10.1411 26.0395 10.014C26.1667 9.88687 26.3424 9.81366 26.5228 9.81366C26.7026 9.81366 26.879 9.8868 27.0061 10.014C27.1333 10.1411 27.2064 10.3175 27.2064 10.4973C27.2064 10.677 27.1333 10.8534 27.0061 10.9806C26.879 11.1077 26.7026 11.1808 26.5228 11.1808Z" fill="black" fill-opacity="0.8"/>
</g>
<defs>
<clipPath id="clip0">
<rect width="35" height="35" fill="white"/>
</clipPath>
</defs>
</svg>
